<?xml version="1.0" encoding="utf-8"?>
<!-- Generator: Adobe Illustrator 28.2.0, SVG Export Plug-In . SVG Version: 6.00 Build 0)  -->
<svg version="1.1" id="Calque_1" xmlns="http://www.w3.org/2000/svg" xmlns:xlink="http://www.w3.org/1999/xlink" x="0px" y="0px"
	 viewBox="0 0 300 300" style="enable-background:new 0 0 300 300;" xml:space="preserve">
<style type="text/css">
	.st0{fill:#FFFFFF;}
</style>
<rect x="-0.2" y="-0.5" width="300" height="300"/>
<g>
	<g>
		<rect x="203.7" y="245" class="st0" width="8.3" height="8.3"/>
	</g>
	<g>
		<polygon class="st0" points="79.2,45.7 87.5,45.7 95.8,45.7 104.1,45.7 112.4,45.7 120.7,45.7 129,45.7 137.3,45.7 145.6,45.7 
			153.9,45.7 162.2,45.7 170.5,45.7 178.8,45.7 187.1,45.7 195.4,45.7 203.7,45.7 212,45.7 220.3,45.7 228.6,45.7 236.9,45.7 
			236.9,37.4 228.6,37.4 220.3,37.4 212,37.4 203.7,37.4 195.4,37.4 187.1,37.4 178.8,37.4 178.8,29.1 170.5,29.1 170.5,37.4 
			162.2,37.4 153.9,37.4 145.6,37.4 137.3,37.4 129,37.4 129,29.1 120.7,29.1 120.7,37.4 112.4,37.4 104.1,37.4 95.8,37.4 
			87.5,37.4 79.2,37.4 70.9,37.4 62.6,37.4 62.6,45.7 70.9,45.7 		"/>
	</g>
	<g>
		<polygon class="st0" points="145.6,29.1 153.9,29.1 162.2,29.1 170.5,29.1 170.5,20.8 162.2,20.8 153.9,20.8 145.6,20.8 
			137.3,20.8 129,20.8 129,29.1 137.3,29.1 		"/>
	</g>
	<g>
		<polygon class="st0" points="212,269.9 203.7,269.9 195.4,269.9 187.1,269.9 178.8,269.9 170.5,269.9 162.2,269.9 153.9,269.9 
			145.6,269.9 137.3,269.9 129,269.9 120.7,269.9 112.4,269.9 104.1,269.9 95.8,269.9 87.5,269.9 79.2,269.9 70.9,269.9 70.9,278.2 
			79.2,278.2 87.5,278.2 95.8,278.2 104.1,278.2 112.4,278.2 120.7,278.2 129,278.2 137.3,278.2 145.6,278.2 153.9,278.2 
			162.2,278.2 170.5,278.2 178.8,278.2 187.1,278.2 195.4,278.2 203.7,278.2 212,278.2 220.3,278.2 228.6,278.2 228.6,269.9 
			220.3,269.9 		"/>
	</g>
	<g>
		<polygon class="st0" points="236.9,45.7 236.9,54 236.9,62.3 228.6,62.3 220.3,62.3 212,62.3 203.7,62.3 195.4,62.3 187.1,62.3 
			178.8,62.3 170.5,62.3 162.2,62.3 153.9,62.3 145.6,62.3 137.3,62.3 129,62.3 120.7,62.3 112.4,62.3 104.1,62.3 95.8,62.3 
			87.5,62.3 79.2,62.3 70.9,62.3 62.6,62.3 62.6,54 62.6,45.7 54.2,45.7 54.2,54 54.2,62.3 54.2,70.6 62.6,70.6 62.6,78.9 
			62.6,87.2 62.6,95.5 62.6,103.8 62.6,112.1 62.6,120.4 62.6,128.7 62.6,137 62.6,145.3 62.6,153.7 62.6,162 62.6,170.3 
			62.6,178.6 62.6,186.9 62.6,195.2 62.6,203.5 62.6,211.8 62.6,220.1 62.6,228.4 62.6,236.7 62.6,245 62.6,253.3 62.6,261.6 
			62.6,269.9 70.9,269.9 70.9,261.6 70.9,253.3 70.9,245 70.9,236.7 70.9,228.4 70.9,220.1 70.9,211.8 70.9,203.5 70.9,195.2 
			70.9,186.9 70.9,178.6 70.9,170.3 70.9,162 70.9,153.7 70.9,145.3 70.9,137 70.9,128.7 70.9,120.4 70.9,112.1 70.9,103.8 
			70.9,95.5 70.9,87.2 70.9,78.9 70.9,70.6 79.2,70.6 87.5,70.6 95.8,70.6 104.1,70.6 112.4,70.6 120.7,70.6 129,70.6 137.3,70.6 
			145.6,70.6 153.9,70.6 162.2,70.6 170.5,70.6 178.8,70.6 187.1,70.6 195.4,70.6 203.7,70.6 212,70.6 220.3,70.6 228.6,70.6 
			228.6,78.9 228.6,87.2 228.6,95.5 228.6,103.8 228.6,112.1 228.6,120.4 228.6,128.7 228.6,137 228.6,145.3 228.6,153.7 228.6,162 
			228.6,170.3 228.6,178.6 228.6,186.9 228.6,195.2 228.6,203.5 228.6,211.8 228.6,220.1 228.6,228.4 228.6,236.7 228.6,245 
			228.6,253.3 228.6,261.6 228.6,269.9 236.9,269.9 236.9,261.6 236.9,253.3 236.9,245 236.9,236.7 236.9,228.4 236.9,220.1 
			236.9,211.8 236.9,203.5 236.9,195.2 236.9,186.9 236.9,178.6 236.9,170.3 236.9,162 236.9,153.7 236.9,145.3 236.9,137 
			236.9,128.7 236.9,120.4 236.9,112.1 236.9,103.8 236.9,95.5 236.9,87.2 236.9,78.9 236.9,70.6 245.2,70.6 245.2,62.3 245.2,54 
			245.2,45.7 		"/>
	</g>
	<g>
		<polygon class="st0" points="195.4,103.8 195.4,112.1 195.4,120.4 195.4,128.7 195.4,137 195.4,145.3 195.4,153.7 195.4,162 
			195.4,170.3 195.4,178.6 195.4,186.9 195.4,195.2 195.4,203.5 195.4,211.8 195.4,220.1 195.4,228.4 195.4,236.7 195.4,245 
			203.7,245 203.7,236.7 203.7,228.4 203.7,220.1 203.7,211.8 203.7,203.5 203.7,195.2 203.7,186.9 203.7,178.6 203.7,170.3 
			203.7,162 203.7,153.7 203.7,145.3 203.7,137 203.7,128.7 203.7,120.4 203.7,112.1 203.7,103.8 203.7,95.5 195.4,95.5 		"/>
	</g>
	<g>
		<rect x="203.7" y="87.2" class="st0" width="8.3" height="8.3"/>
	</g>
	<g>
		<rect x="174.7" y="245" class="st0" width="8.3" height="8.3"/>
	</g>
	<g>
		<polygon class="st0" points="166.4,103.8 166.4,112.1 166.4,120.4 166.4,128.7 166.4,137 166.4,145.3 166.4,153.7 166.4,162 
			166.4,170.3 166.4,178.6 166.4,186.9 166.4,195.2 166.4,203.5 166.4,211.8 166.4,220.1 166.4,228.4 166.4,236.7 166.4,245 
			174.7,245 174.7,236.7 174.7,228.4 174.7,220.1 174.7,211.8 174.7,203.5 174.7,195.2 174.7,186.9 174.7,178.6 174.7,170.3 
			174.7,162 174.7,153.7 174.7,145.3 174.7,137 174.7,128.7 174.7,120.4 174.7,112.1 174.7,103.8 174.7,95.5 166.4,95.5 		"/>
	</g>
	<g>
		<rect x="174.7" y="87.2" class="st0" width="8.3" height="8.3"/>
	</g>
	<g>
		<rect x="137.3" y="245" class="st0" width="8.3" height="8.3"/>
	</g>
	<g>
		<polygon class="st0" points="129,103.8 129,112.1 129,120.4 129,128.7 129,137 129,145.3 129,153.7 129,162 129,170.3 129,178.6 
			129,186.9 129,195.2 129,203.5 129,211.8 129,220.1 129,228.4 129,236.7 129,245 137.3,245 137.3,236.7 137.3,228.4 137.3,220.1 
			137.3,211.8 137.3,203.5 137.3,195.2 137.3,186.9 137.3,178.6 137.3,170.3 137.3,162 137.3,153.7 137.3,145.3 137.3,137 
			137.3,128.7 137.3,120.4 137.3,112.1 137.3,103.8 137.3,95.5 129,95.5 		"/>
	</g>
	<g>
		<rect x="137.3" y="87.2" class="st0" width="8.3" height="8.3"/>
	</g>
	<g>
		<rect x="108.2" y="245" class="st0" width="8.3" height="8.3"/>
	</g>
	<g>
		<polygon class="st0" points="99.9,103.8 99.9,112.1 99.9,120.4 99.9,128.7 99.9,137 99.9,145.3 99.9,153.7 99.9,162 99.9,170.3 
			99.9,178.6 99.9,186.9 99.9,195.2 99.9,203.5 99.9,211.8 99.9,220.1 99.9,228.4 99.9,236.7 99.9,245 108.2,245 108.2,236.7 
			108.2,228.4 108.2,220.1 108.2,211.8 108.2,203.5 108.2,195.2 108.2,186.9 108.2,178.6 108.2,170.3 108.2,162 108.2,153.7 
			108.2,145.3 108.2,137 108.2,128.7 108.2,120.4 108.2,112.1 108.2,103.8 108.2,95.5 99.9,95.5 		"/>
	</g>
	<g>
		<rect x="108.2" y="87.2" class="st0" width="8.3" height="8.3"/>
	</g>
</g>
</svg>
