<?xml version="1.0" encoding="utf-8"?>
<!-- Generator: Adobe Illustrator 28.2.0, SVG Export Plug-In . SVG Version: 6.00 Build 0)  -->
<svg version="1.1" id="Calque_1" xmlns="http://www.w3.org/2000/svg" xmlns:xlink="http://www.w3.org/1999/xlink" x="0px" y="0px"
	 viewBox="0 0 300 300" style="enable-background:new 0 0 300 300;" xml:space="preserve">
<style type="text/css">
	.st0{fill:#FFFFFF;}
</style>
<g>
	<rect width="300" height="300"/>
	<g>
		<path class="st0" d="M104.1,97.9v7.6v7.6h-7.6H89h-7.6v7.6v7.6v7.6h-7.6h-7.6v7.6h-7.6v7.6h-7.6v7.6h-7.6v7.6v7.6H36v7.6v7.6v7.6
			v7.6v7.6v7.6h7.6v7.6v7.6h7.6v7.6h7.6v7.6h7.6v7.6h7.6h7.6v7.6H89h7.6h7.6h7.6h7.6h7.6h7.6v-7.6h7.6v-7.6h7.6v-7.6h7.6v-7.6h7.6
			v-7.6V219h7.6v-7.6v-7.6v-7.6v-7.6v-7.6v-7.6h-7.6V166v-7.6h-7.6v-7.6h-7.6v-7.6h-7.6v-7.6h-7.6v-7.6v-7.6v-7.6h-7.6h-7.6h-7.6
			v-7.6v-7.6v-7.6h-7.6V97.9z M73.8,226.6h-7.6V219h7.6V226.6z M58.7,203.9v-7.6v-7.6h7.6v7.6v7.6v7.6h-7.6V203.9z M81.4,234.1v-7.6
			H89v7.6v7.6h-7.6V234.1z"/>
		<rect x="111.7" y="82.8" class="st0" width="7.6" height="7.6"/>
		<polygon class="st0" points="141.9,75.2 134.4,75.2 126.8,75.2 119.2,75.2 119.2,82.8 126.8,82.8 134.4,82.8 141.9,82.8 
			149.5,82.8 149.5,75.2 		"/>
		<polygon class="st0" points="157.1,82.8 149.5,82.8 149.5,90.4 157.1,90.4 164.6,90.4 164.6,82.8 		"/>
		<polygon class="st0" points="172.2,90.4 164.6,90.4 164.6,97.9 172.2,97.9 179.8,97.9 187.3,97.9 187.3,90.4 179.8,90.4 		"/>
		<rect x="179.8" y="71.4" class="st0" width="7.6" height="7.6"/>
		<rect x="168.4" y="63.9" class="st0" width="7.6" height="7.6"/>
		<rect x="153.3" y="56.3" class="st0" width="7.6" height="7.6"/>
		<rect x="179.8" y="105.5" class="st0" width="7.6" height="7.6"/>
		<rect x="172.2" y="113.1" class="st0" width="7.6" height="7.6"/>
		<rect x="164.6" y="120.6" class="st0" width="7.6" height="7.6"/>
		<polygon class="st0" points="194.9,82.8 187.3,82.8 187.3,90.4 194.9,90.4 202.5,90.4 210,90.4 210,82.8 202.5,82.8 		"/>
		<rect x="194.9" y="63.9" class="st0" width="7.6" height="7.6"/>
		<rect x="187.3" y="48.7" class="st0" width="7.6" height="7.6"/>
		<rect x="179.8" y="33.6" class="st0" width="7.6" height="7.6"/>
		<rect x="202.5" y="105.5" class="st0" width="7.6" height="7.6"/>
		<rect x="202.5" y="120.6" class="st0" width="7.6" height="7.6"/>
		<rect x="202.5" y="135.8" class="st0" width="7.6" height="7.6"/>
		<rect x="225.2" y="97.9" class="st0" width="7.6" height="7.6"/>
		<rect x="232.7" y="105.5" class="st0" width="7.6" height="7.6"/>
		<rect x="240.3" y="113.1" class="st0" width="7.6" height="7.6"/>
		<rect x="247.9" y="120.6" class="st0" width="7.6" height="7.6"/>
		<rect x="225.2" y="79" class="st0" width="7.6" height="7.6"/>
		<rect x="240.3" y="79" class="st0" width="7.6" height="7.6"/>
		<rect x="255.4" y="79" class="st0" width="7.6" height="7.6"/>
		<rect x="217.6" y="56.3" class="st0" width="7.6" height="7.6"/>
		<rect x="225.2" y="48.7" class="st0" width="7.6" height="7.6"/>
		<rect x="232.7" y="41.2" class="st0" width="7.6" height="7.6"/>
		<rect x="240.3" y="33.6" class="st0" width="7.6" height="7.6"/>
	</g>
</g>
</svg>
