<?xml version="1.0" encoding="utf-8"?>
<!-- Generator: Adobe Illustrator 28.2.0, SVG Export Plug-In . SVG Version: 6.00 Build 0)  -->
<svg version="1.1" id="Calque_1" xmlns="http://www.w3.org/2000/svg" xmlns:xlink="http://www.w3.org/1999/xlink" x="0px" y="0px"
	 viewBox="0 0 300 300" style="enable-background:new 0 0 300 300;" xml:space="preserve">
<style type="text/css">
	.st0{fill:#FFFFFF;}
</style>
<g>
	<rect x="-0.2" y="-0.5" width="300" height="300"/>
	<g>
		<polygon class="st0" points="63.2,52.8 63.2,63 63.2,73.2 73.4,73.2 83.6,73.2 83.6,63 83.6,52.8 73.4,52.8 		"/>
		<polygon class="st0" points="226.1,32.5 215.9,32.5 205.7,32.5 195.5,32.5 185.4,32.5 175.2,32.5 165,32.5 154.8,32.5 144.7,32.5 
			134.5,32.5 124.3,32.5 114.1,32.5 104,32.5 93.8,32.5 83.6,32.5 83.6,42.6 83.6,52.8 93.8,52.8 104,52.8 114.1,52.8 124.3,52.8 
			134.5,52.8 144.7,52.8 154.8,52.8 165,52.8 175.2,52.8 185.4,52.8 195.5,52.8 205.7,52.8 205.7,63 195.5,63 195.5,73.2 
			185.4,73.2 185.4,83.4 175.2,83.4 175.2,93.5 165,93.5 165,103.7 154.8,103.7 154.8,113.9 144.7,113.9 144.7,124.1 134.5,124.1 
			134.5,134.2 124.3,134.2 124.3,144.4 124.3,154.6 134.5,154.6 144.7,154.6 154.8,154.6 165,154.6 175.2,154.6 185.4,154.6 
			195.5,154.6 205.7,154.6 205.7,164.8 215.9,164.8 215.9,174.9 215.9,185.1 215.9,195.3 215.9,205.5 215.9,215.6 205.7,215.6 
			205.7,225.8 195.5,225.8 195.5,236 185.4,236 185.4,246.2 175.2,246.2 165,246.2 154.8,246.2 144.7,246.2 134.5,246.2 
			124.3,246.2 114.1,246.2 104,246.2 104,236 93.8,236 93.8,225.8 83.6,225.8 83.6,215.6 73.4,215.6 63.2,215.6 63.2,225.8 
			63.2,236 73.4,236 73.4,246.2 83.6,246.2 83.6,256.4 93.8,256.4 93.8,266.5 104,266.5 114.1,266.5 124.3,266.5 134.5,266.5 
			144.7,266.5 154.8,266.5 165,266.5 175.2,266.5 185.4,266.5 195.5,266.5 195.5,256.4 205.7,256.4 205.7,246.2 215.9,246.2 
			215.9,236 226.1,236 226.1,225.8 236.2,225.8 236.2,215.6 236.2,205.5 236.2,195.3 236.2,185.1 236.2,174.9 236.2,164.8 
			226.1,164.8 226.1,154.6 226.1,144.4 215.9,144.4 205.7,144.4 205.7,134.2 195.5,134.2 185.4,134.2 175.2,134.2 165,134.2 
			165,124.1 175.2,124.1 175.2,113.9 185.4,113.9 185.4,103.7 195.5,103.7 195.5,93.5 205.7,93.5 205.7,83.4 215.9,83.4 215.9,73.2 
			226.1,73.2 226.1,63 236.2,63 236.2,52.8 236.2,42.6 236.2,32.5 		"/>
	</g>
</g>
</svg>
