<?xml version="1.0" encoding="utf-8"?>
<!-- Generator: Adobe Illustrator 28.2.0, SVG Export Plug-In . SVG Version: 6.00 Build 0)  -->
<svg version="1.1" id="Calque_1" xmlns="http://www.w3.org/2000/svg" xmlns:xlink="http://www.w3.org/1999/xlink" x="0px" y="0px"
	 viewBox="0 0 3600 300" style="enable-background:new 0 0 3600 300;" xml:space="preserve">
<style type="text/css">
	.st0{fill:#030000;}
	.st1{fill:#FFFFFF;}
</style>
<rect x="1800" class="st0" width="900" height="300"/>
<rect x="2700" class="st0" width="900" height="300"/>
<rect x="900" class="st0" width="900" height="300"/>
<g>
	<g>
		<rect x="2392.6" y="707" class="st1" width="22.4" height="22.4"/>
	</g>
	<g>
		<polygon class="st1" points="2057.1,170.3 2079.5,170.3 2101.9,170.3 2124.2,170.3 2146.6,170.3 2169,170.3 2191.3,170.3 
			2213.7,170.3 2236.1,170.3 2258.4,170.3 2280.8,170.3 2303.1,170.3 2325.5,170.3 2347.9,170.3 2370.2,170.3 2392.6,170.3 
			2415,170.3 2437.3,170.3 2459.7,170.3 2482.1,170.3 2482.1,147.9 2459.7,147.9 2437.3,147.9 2415,147.9 2392.6,147.9 
			2370.2,147.9 2347.9,147.9 2325.5,147.9 2325.5,125.6 2303.1,125.6 2303.1,147.9 2280.8,147.9 2258.4,147.9 2236.1,147.9 
			2213.7,147.9 2191.3,147.9 2191.3,125.6 2169,125.6 2169,147.9 2146.6,147.9 2124.2,147.9 2101.9,147.9 2079.5,147.9 
			2057.1,147.9 2034.8,147.9 2012.4,147.9 2012.4,170.3 2034.8,170.3 		"/>
	</g>
	<g>
		<polygon class="st1" points="2236.1,125.6 2258.4,125.6 2280.8,125.6 2303.1,125.6 2303.1,103.2 2280.8,103.2 2258.4,103.2 
			2236.1,103.2 2213.7,103.2 2191.3,103.2 2191.3,125.6 2213.7,125.6 		"/>
	</g>
	<g>
		<polygon class="st1" points="2415,774.1 2392.6,774.1 2370.2,774.1 2347.9,774.1 2325.5,774.1 2303.1,774.1 2280.8,774.1 
			2258.4,774.1 2236.1,774.1 2213.7,774.1 2191.3,774.1 2169,774.1 2146.6,774.1 2124.2,774.1 2101.9,774.1 2079.5,774.1 
			2057.1,774.1 2034.8,774.1 2034.8,796.5 2057.1,796.5 2079.5,796.5 2101.9,796.5 2124.2,796.5 2146.6,796.5 2169,796.5 
			2191.3,796.5 2213.7,796.5 2236.1,796.5 2258.4,796.5 2280.8,796.5 2303.1,796.5 2325.5,796.5 2347.9,796.5 2370.2,796.5 
			2392.6,796.5 2415,796.5 2437.3,796.5 2459.7,796.5 2459.7,774.1 2437.3,774.1 		"/>
	</g>
	<g>
		<polygon class="st1" points="2482.1,170.3 2482.1,192.7 2482.1,215 2459.7,215 2437.3,215 2415,215 2392.6,215 2370.2,215 
			2347.9,215 2325.5,215 2303.1,215 2280.8,215 2258.4,215 2236.1,215 2213.7,215 2191.3,215 2169,215 2146.6,215 2124.2,215 
			2101.9,215 2079.5,215 2057.1,215 2034.8,215 2012.4,215 2012.4,192.7 2012.4,170.3 1990,170.3 1990,192.7 1990,215 1990,237.4 
			2012.4,237.4 2012.4,259.7 2012.4,282.1 2012.4,304.5 2012.4,326.8 2012.4,349.2 2012.4,371.6 2012.4,393.9 2012.4,416.3 
			2012.4,438.7 2012.4,461 2012.4,483.4 2012.4,505.8 2012.4,528.1 2012.4,550.5 2012.4,572.8 2012.4,595.2 2012.4,617.6 
			2012.4,639.9 2012.4,662.3 2012.4,684.7 2012.4,707 2012.4,729.4 2012.4,751.8 2012.4,774.1 2034.8,774.1 2034.8,751.8 
			2034.8,729.4 2034.8,707 2034.8,684.7 2034.8,662.3 2034.8,639.9 2034.8,617.6 2034.8,595.2 2034.8,572.8 2034.8,550.5 
			2034.8,528.1 2034.8,505.8 2034.8,483.4 2034.8,461 2034.8,438.7 2034.8,416.3 2034.8,393.9 2034.8,371.6 2034.8,349.2 
			2034.8,326.8 2034.8,304.5 2034.8,282.1 2034.8,259.7 2034.8,237.4 2057.1,237.4 2079.5,237.4 2101.9,237.4 2124.2,237.4 
			2146.6,237.4 2169,237.4 2191.3,237.4 2213.7,237.4 2236.1,237.4 2258.4,237.4 2280.8,237.4 2303.1,237.4 2325.5,237.4 
			2347.9,237.4 2370.2,237.4 2392.6,237.4 2415,237.4 2437.3,237.4 2459.7,237.4 2459.7,259.7 2459.7,282.1 2459.7,304.5 
			2459.7,326.8 2459.7,349.2 2459.7,371.6 2459.7,393.9 2459.7,416.3 2459.7,438.7 2459.7,461 2459.7,483.4 2459.7,505.8 
			2459.7,528.1 2459.7,550.5 2459.7,572.8 2459.7,595.2 2459.7,617.6 2459.7,639.9 2459.7,662.3 2459.7,684.7 2459.7,707 
			2459.7,729.4 2459.7,751.8 2459.7,774.1 2482.1,774.1 2482.1,751.8 2482.1,729.4 2482.1,707 2482.1,684.7 2482.1,662.3 
			2482.1,639.9 2482.1,617.6 2482.1,595.2 2482.1,572.8 2482.1,550.5 2482.1,528.1 2482.1,505.8 2482.1,483.4 2482.1,461 
			2482.1,438.7 2482.1,416.3 2482.1,393.9 2482.1,371.6 2482.1,349.2 2482.1,326.8 2482.1,304.5 2482.1,282.1 2482.1,259.7 
			2482.1,237.4 2504.4,237.4 2504.4,215 2504.4,192.7 2504.4,170.3 		"/>
	</g>
	<g>
		<polygon class="st1" points="2370.2,326.8 2370.2,349.2 2370.2,371.6 2370.2,393.9 2370.2,416.3 2370.2,438.7 2370.2,461 
			2370.2,483.4 2370.2,505.8 2370.2,528.1 2370.2,550.5 2370.2,572.8 2370.2,595.2 2370.2,617.6 2370.2,639.9 2370.2,662.3 
			2370.2,684.7 2370.2,707 2392.6,707 2392.6,684.7 2392.6,662.3 2392.6,639.9 2392.6,617.6 2392.6,595.2 2392.6,572.8 
			2392.6,550.5 2392.6,528.1 2392.6,505.8 2392.6,483.4 2392.6,461 2392.6,438.7 2392.6,416.3 2392.6,393.9 2392.6,371.6 
			2392.6,349.2 2392.6,326.8 2392.6,304.5 2370.2,304.5 		"/>
	</g>
	<g>
		<rect x="2392.6" y="282.1" class="st1" width="22.4" height="22.4"/>
	</g>
	<g>
		<rect x="2314.3" y="707" class="st1" width="22.4" height="22.4"/>
	</g>
	<g>
		<polygon class="st1" points="2292,326.8 2292,349.2 2292,371.6 2292,393.9 2292,416.3 2292,438.7 2292,461 2292,483.4 2292,505.8 
			2292,528.1 2292,550.5 2292,572.8 2292,595.2 2292,617.6 2292,639.9 2292,662.3 2292,684.7 2292,707 2314.3,707 2314.3,684.7 
			2314.3,662.3 2314.3,639.9 2314.3,617.6 2314.3,595.2 2314.3,572.8 2314.3,550.5 2314.3,528.1 2314.3,505.8 2314.3,483.4 
			2314.3,461 2314.3,438.7 2314.3,416.3 2314.3,393.9 2314.3,371.6 2314.3,349.2 2314.3,326.8 2314.3,304.5 2292,304.5 		"/>
	</g>
	<g>
		<rect x="2314.3" y="282.1" class="st1" width="22.4" height="22.4"/>
	</g>
	<g>
		<rect x="2213.7" y="707" class="st1" width="22.4" height="22.4"/>
	</g>
	<g>
		<polygon class="st1" points="2191.3,326.8 2191.3,349.2 2191.3,371.6 2191.3,393.9 2191.3,416.3 2191.3,438.7 2191.3,461 
			2191.3,483.4 2191.3,505.8 2191.3,528.1 2191.3,550.5 2191.3,572.8 2191.3,595.2 2191.3,617.6 2191.3,639.9 2191.3,662.3 
			2191.3,684.7 2191.3,707 2213.7,707 2213.7,684.7 2213.7,662.3 2213.7,639.9 2213.7,617.6 2213.7,595.2 2213.7,572.8 
			2213.7,550.5 2213.7,528.1 2213.7,505.8 2213.7,483.4 2213.7,461 2213.7,438.7 2213.7,416.3 2213.7,393.9 2213.7,371.6 
			2213.7,349.2 2213.7,326.8 2213.7,304.5 2191.3,304.5 		"/>
	</g>
	<g>
		<rect x="2213.7" y="282.1" class="st1" width="22.4" height="22.4"/>
	</g>
	<g>
		<rect x="2135.4" y="707" class="st1" width="22.4" height="22.4"/>
	</g>
	<g>
		<polygon class="st1" points="2113.1,326.8 2113.1,349.2 2113.1,371.6 2113.1,393.9 2113.1,416.3 2113.1,438.7 2113.1,461 
			2113.1,483.4 2113.1,505.8 2113.1,528.1 2113.1,550.5 2113.1,572.8 2113.1,595.2 2113.1,617.6 2113.1,639.9 2113.1,662.3 
			2113.1,684.7 2113.1,707 2135.4,707 2135.4,684.7 2135.4,662.3 2135.4,639.9 2135.4,617.6 2135.4,595.2 2135.4,572.8 
			2135.4,550.5 2135.4,528.1 2135.4,505.8 2135.4,483.4 2135.4,461 2135.4,438.7 2135.4,416.3 2135.4,393.9 2135.4,371.6 
			2135.4,349.2 2135.4,326.8 2135.4,304.5 2113.1,304.5 		"/>
	</g>
	<g>
		<rect x="2135.4" y="282.1" class="st1" width="22.4" height="22.4"/>
	</g>
</g>
<g>
	<path class="st1" d="M3008.5,290.6v23.6v23.6h-23.6h-23.6h-23.6v23.6V385v23.6h-23.6h-23.6v23.6H2867v23.6h-23.6v23.6h-23.6v23.6
		v23.6h-23.6v23.6v23.6v23.6v23.6v23.6V668h23.6v23.6v23.6h23.6v23.6h23.6v23.6h23.6v23.6h23.6h23.6v23.6h23.6h23.6h23.6h23.6h23.6
		h23.6h23.6v-23.6h23.6v-23.6h23.6v-23.6h23.6v-23.6h23.6v-23.6V668h23.6v-23.6v-23.6v-23.6v-23.6v-23.6v-23.6h-23.6v-23.6v-23.6
		h-23.6v-23.6H3150v-23.6h-23.6v-23.6h-23.6V385v-23.6v-23.6h-23.6h-23.6h-23.6v-23.6v-23.6v-23.6h-23.6V290.6z M2914.2,691.6h-23.6
		V668h23.6V691.6z M2867,620.8v-23.6v-23.6h23.6v23.6v23.6v23.6H2867V620.8z M2937.7,715.2v-23.6h23.6v23.6v23.6h-23.6V715.2z"/>
	<rect x="3032.1" y="243.5" class="st1" width="23.6" height="23.6"/>
	<polygon class="st1" points="3126.4,219.9 3102.8,219.9 3079.2,219.9 3055.7,219.9 3055.7,243.5 3079.2,243.5 3102.8,243.5 
		3126.4,243.5 3150,243.5 3150,219.9 	"/>
	<polygon class="st1" points="3173.6,243.5 3150,243.5 3150,267.1 3173.6,267.1 3197.2,267.1 3197.2,243.5 	"/>
	<polygon class="st1" points="3220.8,267.1 3197.2,267.1 3197.2,290.6 3220.8,290.6 3244.3,290.6 3267.9,290.6 3267.9,267.1 
		3244.3,267.1 	"/>
	<rect x="3244.3" y="208.1" class="st1" width="23.6" height="23.6"/>
	<rect x="3209" y="184.5" class="st1" width="23.6" height="23.6"/>
	<rect x="3161.8" y="160.9" class="st1" width="23.6" height="23.6"/>
	<rect x="3244.3" y="314.2" class="st1" width="23.6" height="23.6"/>
	<rect x="3220.8" y="337.8" class="st1" width="23.6" height="23.6"/>
	<rect x="3197.2" y="361.4" class="st1" width="23.6" height="23.6"/>
	<polygon class="st1" points="3291.5,243.5 3267.9,243.5 3267.9,267.1 3291.5,267.1 3315.1,267.1 3338.7,267.1 3338.7,243.5 
		3315.1,243.5 	"/>
	<rect x="3291.5" y="184.5" class="st1" width="23.6" height="23.6"/>
	<rect x="3267.9" y="137.3" class="st1" width="23.6" height="23.6"/>
	<rect x="3244.3" y="90.2" class="st1" width="23.6" height="23.6"/>
	<rect x="3315.1" y="314.2" class="st1" width="23.6" height="23.6"/>
	<rect x="3315.1" y="361.4" class="st1" width="23.6" height="23.6"/>
	<rect x="3315.1" y="408.6" class="st1" width="23.6" height="23.6"/>
	<rect x="3385.8" y="290.6" class="st1" width="23.6" height="23.6"/>
	<rect x="3409.4" y="314.2" class="st1" width="23.6" height="23.6"/>
	<rect x="3433" y="337.8" class="st1" width="23.6" height="23.6"/>
	<rect x="3456.6" y="361.4" class="st1" width="23.6" height="23.6"/>
	<rect x="3385.8" y="231.7" class="st1" width="23.6" height="23.6"/>
	<rect x="3433" y="231.7" class="st1" width="23.6" height="23.6"/>
	<rect x="3480.2" y="231.7" class="st1" width="23.6" height="23.6"/>
	<rect x="3362.3" y="160.9" class="st1" width="23.6" height="23.6"/>
	<rect x="3385.8" y="137.3" class="st1" width="23.6" height="23.6"/>
	<rect x="3409.4" y="113.8" class="st1" width="23.6" height="23.6"/>
	<rect x="3433" y="90.2" class="st1" width="23.6" height="23.6"/>
</g>
<g>
	<polygon class="st1" points="1040.6,695.9 1040.6,670 1040.6,644.1 1040.6,618.2 1040.6,592.3 1040.6,566.4 1040.6,540.5 
		1040.6,514.6 1040.6,488.7 1040.6,462.8 1040.6,436.9 1040.6,411 1040.6,385.1 1040.6,359.2 1040.6,333.3 1040.6,307.4 
		1040.6,281.5 1040.6,255.6 1040.6,229.7 1040.6,203.8 1040.6,177.8 1040.6,151.9 1014.7,151.9 1014.7,177.8 1014.7,203.8 
		1014.7,229.7 1014.7,255.6 1014.7,281.5 1014.7,307.4 1014.7,333.3 1014.7,359.2 1014.7,385.1 1014.7,411 1014.7,436.9 
		1014.7,462.8 1014.7,488.7 1014.7,514.6 1014.7,540.5 1014.7,566.4 1014.7,592.3 1014.7,618.2 1014.7,644.1 1014.7,670 
		1014.7,695.9 1014.7,721.8 1014.7,747.7 1040.6,747.7 1040.6,721.8 	"/>
	<polygon class="st1" points="1610.5,747.7 1584.6,747.7 1584.6,721.8 1584.6,695.9 1584.6,670 1584.6,644.1 1584.6,618.2 
		1584.6,592.3 1584.6,566.4 1584.6,540.5 1584.6,514.6 1584.6,488.7 1584.6,462.8 1558.7,462.8 1558.7,488.7 1558.7,514.6 
		1558.7,540.5 1558.7,566.4 1558.7,592.3 1558.7,618.2 1558.7,644.1 1558.7,670 1558.7,695.9 1558.7,721.8 1558.7,747.7 
		1532.7,747.7 1506.8,747.7 1480.9,747.7 1455,747.7 1429.1,747.7 1403.2,747.7 1377.3,747.7 1351.4,747.7 1325.5,747.7 
		1299.6,747.7 1273.7,747.7 1247.8,747.7 1221.9,747.7 1196,747.7 1170.1,747.7 1144.2,747.7 1144.2,721.8 1144.2,695.9 1144.2,670 
		1144.2,644.1 1144.2,618.2 1144.2,592.3 1144.2,566.4 1144.2,540.5 1144.2,514.6 1144.2,488.7 1144.2,462.8 1118.3,462.8 
		1118.3,488.7 1118.3,514.6 1118.3,540.5 1118.3,566.4 1118.3,592.3 1118.3,618.2 1118.3,644.1 1118.3,670 1118.3,695.9 
		1118.3,721.8 1118.3,747.7 1092.4,747.7 1066.5,747.7 1040.6,747.7 1040.6,773.6 1066.5,773.6 1092.4,773.6 1118.3,773.6 
		1144.2,773.6 1170.1,773.6 1196,773.6 1221.9,773.6 1247.8,773.6 1273.7,773.6 1299.6,773.6 1325.5,773.6 1351.4,773.6 
		1377.3,773.6 1403.2,773.6 1429.1,773.6 1455,773.6 1480.9,773.6 1506.8,773.6 1532.7,773.6 1558.7,773.6 1584.6,773.6 
		1610.5,773.6 1636.4,773.6 1662.3,773.6 1662.3,747.7 1636.4,747.7 	"/>
	<polygon class="st1" points="1662.3,203.8 1662.3,229.7 1662.3,255.6 1662.3,281.5 1662.3,307.4 1662.3,333.3 1662.3,359.2 
		1662.3,385.1 1662.3,411 1662.3,436.9 1662.3,462.8 1662.3,488.7 1662.3,514.6 1662.3,540.5 1662.3,566.4 1662.3,592.3 
		1662.3,618.2 1662.3,644.1 1662.3,670 1662.3,695.9 1662.3,721.8 1662.3,747.7 1688.2,747.7 1688.2,721.8 1688.2,695.9 1688.2,670 
		1688.2,644.1 1688.2,618.2 1688.2,592.3 1688.2,566.4 1688.2,540.5 1688.2,514.6 1688.2,488.7 1688.2,462.8 1688.2,436.9 
		1688.2,411 1688.2,385.1 1688.2,359.2 1688.2,333.3 1688.2,307.4 1688.2,281.5 1688.2,255.6 1688.2,229.7 1688.2,203.8 	"/>
	<rect x="1636.4" y="177.8" class="st1" width="25.9" height="25.9"/>
	<rect x="1610.5" y="151.9" class="st1" width="25.9" height="25.9"/>
	<polygon class="st1" points="1429.1,229.7 1429.1,255.6 1429.1,281.5 1455,281.5 1455,255.6 1455,229.7 1455,203.8 1429.1,203.8 	
		"/>
	<polygon class="st1" points="1351.4,229.7 1351.4,203.8 1325.5,203.8 1325.5,229.7 1325.5,255.6 1325.5,281.5 1351.4,281.5 
		1351.4,255.6 	"/>
	<polygon class="st1" points="1377.3,281.5 1351.4,281.5 1351.4,307.4 1377.3,307.4 1403.2,307.4 1429.1,307.4 1429.1,281.5 
		1403.2,281.5 	"/>
	<polygon class="st1" points="1403.2,203.8 1429.1,203.8 1429.1,177.8 1403.2,177.8 1377.3,177.8 1351.4,177.8 1351.4,203.8 
		1377.3,203.8 	"/>
	<polygon class="st1" points="1455,333.3 1429.1,333.3 1403.2,333.3 1377.3,333.3 1351.4,333.3 1325.5,333.3 1299.6,333.3 
		1273.7,333.3 1247.8,333.3 1221.9,333.3 1196,333.3 1170.1,333.3 1170.1,359.2 1196,359.2 1221.9,359.2 1247.8,359.2 1273.7,359.2 
		1299.6,359.2 1325.5,359.2 1351.4,359.2 1377.3,359.2 1403.2,359.2 1429.1,359.2 1455,359.2 1480.9,359.2 1506.8,359.2 
		1506.8,333.3 1480.9,333.3 	"/>
	<polygon class="st1" points="1196,462.8 1221.9,462.8 1247.8,462.8 1273.7,462.8 1299.6,462.8 1325.5,462.8 1351.4,462.8 
		1377.3,462.8 1403.2,462.8 1429.1,462.8 1455,462.8 1480.9,462.8 1506.8,462.8 1532.7,462.8 1558.7,462.8 1558.7,436.9 
		1532.7,436.9 1506.8,436.9 1480.9,436.9 1455,436.9 1429.1,436.9 1403.2,436.9 1377.3,436.9 1351.4,436.9 1325.5,436.9 
		1299.6,436.9 1273.7,436.9 1247.8,436.9 1221.9,436.9 1196,436.9 1170.1,436.9 1144.2,436.9 1144.2,462.8 1170.1,462.8 	"/>
	<polygon class="st1" points="1092.4,151.9 1118.3,151.9 1144.2,151.9 1144.2,177.8 1144.2,203.8 1144.2,229.7 1144.2,255.6 
		1144.2,281.5 1144.2,307.4 1144.2,333.3 1170.1,333.3 1170.1,307.4 1170.1,281.5 1170.1,255.6 1170.1,229.7 1170.1,203.8 
		1170.1,177.8 1170.1,151.9 1196,151.9 1221.9,151.9 1247.8,151.9 1273.7,151.9 1299.6,151.9 1325.5,151.9 1351.4,151.9 
		1377.3,151.9 1403.2,151.9 1429.1,151.9 1455,151.9 1480.9,151.9 1506.8,151.9 1506.8,177.8 1506.8,203.8 1506.8,229.7 
		1506.8,255.6 1506.8,281.5 1506.8,307.4 1506.8,333.3 1532.7,333.3 1532.7,307.4 1532.7,281.5 1532.7,255.6 1532.7,229.7 
		1532.7,203.8 1532.7,177.8 1532.7,151.9 1558.7,151.9 1584.6,151.9 1610.5,151.9 1610.5,126 1584.6,126 1558.7,126 1532.7,126 
		1506.8,126 1480.9,126 1455,126 1429.1,126 1403.2,126 1377.3,126 1351.4,126 1325.5,126 1299.6,126 1273.7,126 1247.8,126 
		1221.9,126 1196,126 1170.1,126 1144.2,126 1118.3,126 1092.4,126 1066.5,126 1040.6,126 1040.6,151.9 1066.5,151.9 	"/>
</g>
<g>
	<rect y="300" class="st0" width="900" height="300"/>
	<rect y="600.2" class="st0" width="900" height="300"/>
	<rect class="st0" width="900" height="300"/>
	<g>
		<polygon class="st1" points="210.2,182 210.2,210.2 210.2,238.4 238.4,238.4 266.6,238.4 266.6,210.2 266.6,182 238.4,182 		"/>
		<polygon class="st1" points="661.6,125.6 633.4,125.6 605.2,125.6 577,125.6 548.7,125.6 520.5,125.6 492.3,125.6 464.1,125.6 
			435.9,125.6 407.7,125.6 379.5,125.6 351.3,125.6 323,125.6 294.8,125.6 266.6,125.6 266.6,153.8 266.6,182 294.8,182 323,182 
			351.3,182 379.5,182 407.7,182 435.9,182 464.1,182 492.3,182 520.5,182 548.7,182 577,182 605.2,182 605.2,210.2 577,210.2 
			577,238.4 548.7,238.4 548.7,266.7 520.5,266.7 520.5,294.9 492.3,294.9 492.3,323.1 464.1,323.1 464.1,351.3 435.9,351.3 
			435.9,379.5 407.7,379.5 407.7,407.7 379.5,407.7 379.5,435.9 379.5,464.2 407.7,464.2 435.9,464.2 464.1,464.2 492.3,464.2 
			520.5,464.2 548.7,464.2 577,464.2 605.2,464.2 605.2,492.4 633.4,492.4 633.4,520.6 633.4,548.8 633.4,577 633.4,605.2 
			633.4,633.4 605.2,633.4 605.2,661.7 577,661.7 577,689.9 548.7,689.9 548.7,718.1 520.5,718.1 492.3,718.1 464.1,718.1 
			435.9,718.1 407.7,718.1 379.5,718.1 351.3,718.1 323,718.1 323,689.9 294.8,689.9 294.8,661.7 266.6,661.7 266.6,633.4 
			238.4,633.4 210.2,633.4 210.2,661.7 210.2,689.9 238.4,689.9 238.4,718.1 266.6,718.1 266.6,746.3 294.8,746.3 294.8,774.5 
			323,774.5 351.3,774.5 379.5,774.5 407.7,774.5 435.9,774.5 464.1,774.5 492.3,774.5 520.5,774.5 548.7,774.5 577,774.5 
			577,746.3 605.2,746.3 605.2,718.1 633.4,718.1 633.4,689.9 661.6,689.9 661.6,661.7 689.8,661.7 689.8,633.4 689.8,605.2 
			689.8,577 689.8,548.8 689.8,520.6 689.8,492.4 661.6,492.4 661.6,464.2 661.6,435.9 633.4,435.9 605.2,435.9 605.2,407.7 
			577,407.7 548.7,407.7 520.5,407.7 492.3,407.7 492.3,379.5 520.5,379.5 520.5,351.3 548.7,351.3 548.7,323.1 577,323.1 
			577,294.9 605.2,294.9 605.2,266.7 633.4,266.7 633.4,238.4 661.6,238.4 661.6,210.2 689.8,210.2 689.8,182 689.8,153.8 
			689.8,125.6 		"/>
	</g>
</g>
</svg>
