<?xml version="1.0" encoding="utf-8"?>
<!-- Generator: Adobe Illustrator 28.2.0, SVG Export Plug-In . SVG Version: 6.00 Build 0)  -->
<svg version="1.1" id="Calque_1" xmlns="http://www.w3.org/2000/svg" xmlns:xlink="http://www.w3.org/1999/xlink" x="0px" y="0px"
	 viewBox="0 0 3600 300" style="enable-background:new 0 0 3600 300;" xml:space="preserve">
<style type="text/css">
	.st0{fill:#030000;}
	.st1{fill:#FFFFFF;}
</style>
<rect x="1800" class="st0" width="900" height="300"/>
<rect x="2700" class="st0" width="900" height="300"/>
<rect x="900" class="st0" width="900" height="300"/>
<g>
	<g>
		<rect x="2392.6" y="407.2" class="st1" width="22.4" height="22.4"/>
	</g>
	<g>
		<polygon class="st1" points="2057.1,-129.5 2079.5,-129.5 2101.9,-129.5 2124.2,-129.5 2146.6,-129.5 2169,-129.5 2191.3,-129.5 
			2213.7,-129.5 2236.1,-129.5 2258.4,-129.5 2280.8,-129.5 2303.1,-129.5 2325.5,-129.5 2347.9,-129.5 2370.2,-129.5 
			2392.6,-129.5 2415,-129.5 2437.3,-129.5 2459.7,-129.5 2482.1,-129.5 2482.1,-151.9 2459.7,-151.9 2437.3,-151.9 2415,-151.9 
			2392.6,-151.9 2370.2,-151.9 2347.9,-151.9 2325.5,-151.9 2325.5,-174.3 2303.1,-174.3 2303.1,-151.9 2280.8,-151.9 
			2258.4,-151.9 2236.1,-151.9 2213.7,-151.9 2191.3,-151.9 2191.3,-174.3 2169,-174.3 2169,-151.9 2146.6,-151.9 2124.2,-151.9 
			2101.9,-151.9 2079.5,-151.9 2057.1,-151.9 2034.8,-151.9 2012.4,-151.9 2012.4,-129.5 2034.8,-129.5 		"/>
	</g>
	<g>
		<polygon class="st1" points="2236.1,-174.3 2258.4,-174.3 2280.8,-174.3 2303.1,-174.3 2303.1,-196.6 2280.8,-196.6 
			2258.4,-196.6 2236.1,-196.6 2213.7,-196.6 2191.3,-196.6 2191.3,-174.3 2213.7,-174.3 		"/>
	</g>
	<g>
		<polygon class="st1" points="2415,474.3 2392.6,474.3 2370.2,474.3 2347.9,474.3 2325.5,474.3 2303.1,474.3 2280.8,474.3 
			2258.4,474.3 2236.1,474.3 2213.7,474.3 2191.3,474.3 2169,474.3 2146.6,474.3 2124.2,474.3 2101.9,474.3 2079.5,474.3 
			2057.1,474.3 2034.8,474.3 2034.8,496.7 2057.1,496.7 2079.5,496.7 2101.9,496.7 2124.2,496.7 2146.6,496.7 2169,496.7 
			2191.3,496.7 2213.7,496.7 2236.1,496.7 2258.4,496.7 2280.8,496.7 2303.1,496.7 2325.5,496.7 2347.9,496.7 2370.2,496.7 
			2392.6,496.7 2415,496.7 2437.3,496.7 2459.7,496.7 2459.7,474.3 2437.3,474.3 		"/>
	</g>
	<g>
		<polygon class="st1" points="2482.1,-129.5 2482.1,-107.2 2482.1,-84.8 2459.7,-84.8 2437.3,-84.8 2415,-84.8 2392.6,-84.8 
			2370.2,-84.8 2347.9,-84.8 2325.5,-84.8 2303.1,-84.8 2280.8,-84.8 2258.4,-84.8 2236.1,-84.8 2213.7,-84.8 2191.3,-84.8 
			2169,-84.8 2146.6,-84.8 2124.2,-84.8 2101.9,-84.8 2079.5,-84.8 2057.1,-84.8 2034.8,-84.8 2012.4,-84.8 2012.4,-107.2 
			2012.4,-129.5 1990,-129.5 1990,-107.2 1990,-84.8 1990,-62.4 2012.4,-62.4 2012.4,-40.1 2012.4,-17.7 2012.4,4.6 2012.4,27 
			2012.4,49.4 2012.4,71.7 2012.4,94.1 2012.4,116.5 2012.4,138.8 2012.4,161.2 2012.4,183.6 2012.4,205.9 2012.4,228.3 
			2012.4,250.6 2012.4,273 2012.4,295.4 2012.4,317.7 2012.4,340.1 2012.4,362.5 2012.4,384.8 2012.4,407.2 2012.4,429.6 
			2012.4,451.9 2012.4,474.3 2034.8,474.3 2034.8,451.9 2034.8,429.6 2034.8,407.2 2034.8,384.8 2034.8,362.5 2034.8,340.1 
			2034.8,317.7 2034.8,295.4 2034.8,273 2034.8,250.6 2034.8,228.3 2034.8,205.9 2034.8,183.6 2034.8,161.2 2034.8,138.8 
			2034.8,116.5 2034.8,94.1 2034.8,71.7 2034.8,49.4 2034.8,27 2034.8,4.6 2034.8,-17.7 2034.8,-40.1 2034.8,-62.4 2057.1,-62.4 
			2079.5,-62.4 2101.9,-62.4 2124.2,-62.4 2146.6,-62.4 2169,-62.4 2191.3,-62.4 2213.7,-62.4 2236.1,-62.4 2258.4,-62.4 
			2280.8,-62.4 2303.1,-62.4 2325.5,-62.4 2347.9,-62.4 2370.2,-62.4 2392.6,-62.4 2415,-62.4 2437.3,-62.4 2459.7,-62.4 
			2459.7,-40.1 2459.7,-17.7 2459.7,4.6 2459.7,27 2459.7,49.4 2459.7,71.7 2459.7,94.1 2459.7,116.5 2459.7,138.8 2459.7,161.2 
			2459.7,183.6 2459.7,205.9 2459.7,228.3 2459.7,250.6 2459.7,273 2459.7,295.4 2459.7,317.7 2459.7,340.1 2459.7,362.5 
			2459.7,384.8 2459.7,407.2 2459.7,429.6 2459.7,451.9 2459.7,474.3 2482.1,474.3 2482.1,451.9 2482.1,429.6 2482.1,407.2 
			2482.1,384.8 2482.1,362.5 2482.1,340.1 2482.1,317.7 2482.1,295.4 2482.1,273 2482.1,250.6 2482.1,228.3 2482.1,205.9 
			2482.1,183.6 2482.1,161.2 2482.1,138.8 2482.1,116.5 2482.1,94.1 2482.1,71.7 2482.1,49.4 2482.1,27 2482.1,4.6 2482.1,-17.7 
			2482.1,-40.1 2482.1,-62.4 2504.4,-62.4 2504.4,-84.8 2504.4,-107.2 2504.4,-129.5 		"/>
	</g>
	<g>
		<polygon class="st1" points="2370.2,27 2370.2,49.4 2370.2,71.7 2370.2,94.1 2370.2,116.5 2370.2,138.8 2370.2,161.2 
			2370.2,183.6 2370.2,205.9 2370.2,228.3 2370.2,250.6 2370.2,273 2370.2,295.4 2370.2,317.7 2370.2,340.1 2370.2,362.5 
			2370.2,384.8 2370.2,407.2 2392.6,407.2 2392.6,384.8 2392.6,362.5 2392.6,340.1 2392.6,317.7 2392.6,295.4 2392.6,273 
			2392.6,250.6 2392.6,228.3 2392.6,205.9 2392.6,183.6 2392.6,161.2 2392.6,138.8 2392.6,116.5 2392.6,94.1 2392.6,71.7 
			2392.6,49.4 2392.6,27 2392.6,4.6 2370.2,4.6 		"/>
	</g>
	<g>
		<rect x="2392.6" y="-17.7" class="st1" width="22.4" height="22.4"/>
	</g>
	<g>
		<rect x="2314.3" y="407.2" class="st1" width="22.4" height="22.4"/>
	</g>
	<g>
		<polygon class="st1" points="2292,27 2292,49.4 2292,71.7 2292,94.1 2292,116.5 2292,138.8 2292,161.2 2292,183.6 2292,205.9 
			2292,228.3 2292,250.6 2292,273 2292,295.4 2292,317.7 2292,340.1 2292,362.5 2292,384.8 2292,407.2 2314.3,407.2 2314.3,384.8 
			2314.3,362.5 2314.3,340.1 2314.3,317.7 2314.3,295.4 2314.3,273 2314.3,250.6 2314.3,228.3 2314.3,205.9 2314.3,183.6 
			2314.3,161.2 2314.3,138.8 2314.3,116.5 2314.3,94.1 2314.3,71.7 2314.3,49.4 2314.3,27 2314.3,4.6 2292,4.6 		"/>
	</g>
	<g>
		<rect x="2314.3" y="-17.7" class="st1" width="22.4" height="22.4"/>
	</g>
	<g>
		<rect x="2213.7" y="407.2" class="st1" width="22.4" height="22.4"/>
	</g>
	<g>
		<polygon class="st1" points="2191.3,27 2191.3,49.4 2191.3,71.7 2191.3,94.1 2191.3,116.5 2191.3,138.8 2191.3,161.2 
			2191.3,183.6 2191.3,205.9 2191.3,228.3 2191.3,250.6 2191.3,273 2191.3,295.4 2191.3,317.7 2191.3,340.1 2191.3,362.5 
			2191.3,384.8 2191.3,407.2 2213.7,407.2 2213.7,384.8 2213.7,362.5 2213.7,340.1 2213.7,317.7 2213.7,295.4 2213.7,273 
			2213.7,250.6 2213.7,228.3 2213.7,205.9 2213.7,183.6 2213.7,161.2 2213.7,138.8 2213.7,116.5 2213.7,94.1 2213.7,71.7 
			2213.7,49.4 2213.7,27 2213.7,4.6 2191.3,4.6 		"/>
	</g>
	<g>
		<rect x="2213.7" y="-17.7" class="st1" width="22.4" height="22.4"/>
	</g>
	<g>
		<rect x="2135.4" y="407.2" class="st1" width="22.4" height="22.4"/>
	</g>
	<g>
		<polygon class="st1" points="2113.1,27 2113.1,49.4 2113.1,71.7 2113.1,94.1 2113.1,116.5 2113.1,138.8 2113.1,161.2 
			2113.1,183.6 2113.1,205.9 2113.1,228.3 2113.1,250.6 2113.1,273 2113.1,295.4 2113.1,317.7 2113.1,340.1 2113.1,362.5 
			2113.1,384.8 2113.1,407.2 2135.4,407.2 2135.4,384.8 2135.4,362.5 2135.4,340.1 2135.4,317.7 2135.4,295.4 2135.4,273 
			2135.4,250.6 2135.4,228.3 2135.4,205.9 2135.4,183.6 2135.4,161.2 2135.4,138.8 2135.4,116.5 2135.4,94.1 2135.4,71.7 
			2135.4,49.4 2135.4,27 2135.4,4.6 2113.1,4.6 		"/>
	</g>
	<g>
		<rect x="2135.4" y="-17.7" class="st1" width="22.4" height="22.4"/>
	</g>
</g>
<g>
	<path class="st1" d="M3008.5-9.2v23.6V38h-23.6h-23.6h-23.6v23.6v23.6v23.6h-23.6h-23.6v23.6H2867v23.6h-23.6v23.6h-23.6v23.6v23.6
		h-23.6v23.6v23.6v23.6V321v23.6v23.6h23.6v23.6v23.6h23.6v23.6h23.6v23.6h23.6v23.6h23.6h23.6v23.6h23.6h23.6h23.6h23.6h23.6h23.6
		h23.6v-23.6h23.6v-23.6h23.6v-23.6h23.6v-23.6h23.6v-23.6v-23.6h23.6v-23.6V321v-23.6v-23.6v-23.6v-23.6h-23.6v-23.6v-23.6h-23.6
		v-23.6H3150v-23.6h-23.6v-23.6h-23.6V85.2V61.6V38h-23.6h-23.6h-23.6V14.4V-9.2v-23.6h-23.6V-9.2z M2914.2,391.8h-23.6v-23.6h23.6
		V391.8z M2867,321v-23.6v-23.6h23.6v23.6V321v23.6H2867V321z M2937.7,415.3v-23.6h23.6v23.6v23.6h-23.6V415.3z"/>
	<rect x="3032.1" y="-56.4" class="st1" width="23.6" height="23.6"/>
	<polygon class="st1" points="3126.4,-79.9 3102.8,-79.9 3079.2,-79.9 3055.7,-79.9 3055.7,-56.4 3079.2,-56.4 3102.8,-56.4 
		3126.4,-56.4 3150,-56.4 3150,-79.9 	"/>
	<polygon class="st1" points="3173.6,-56.4 3150,-56.4 3150,-32.8 3173.6,-32.8 3197.2,-32.8 3197.2,-56.4 	"/>
	<polygon class="st1" points="3220.8,-32.8 3197.2,-32.8 3197.2,-9.2 3220.8,-9.2 3244.3,-9.2 3267.9,-9.2 3267.9,-32.8 
		3244.3,-32.8 	"/>
	<rect x="3244.3" y="-91.7" class="st1" width="23.6" height="23.6"/>
	<rect x="3209" y="-115.3" class="st1" width="23.6" height="23.6"/>
	<rect x="3161.8" y="-138.9" class="st1" width="23.6" height="23.6"/>
	<rect x="3244.3" y="14.4" class="st1" width="23.6" height="23.6"/>
	<rect x="3220.8" y="38" class="st1" width="23.6" height="23.6"/>
	<rect x="3197.2" y="61.6" class="st1" width="23.6" height="23.6"/>
	<polygon class="st1" points="3291.5,-56.4 3267.9,-56.4 3267.9,-32.8 3291.5,-32.8 3315.1,-32.8 3338.7,-32.8 3338.7,-56.4 
		3315.1,-56.4 	"/>
	<rect x="3291.5" y="-115.3" class="st1" width="23.6" height="23.6"/>
	<rect x="3267.9" y="-162.5" class="st1" width="23.6" height="23.6"/>
	<rect x="3244.3" y="-209.7" class="st1" width="23.6" height="23.6"/>
	<rect x="3315.1" y="14.4" class="st1" width="23.6" height="23.6"/>
	<rect x="3315.1" y="61.6" class="st1" width="23.6" height="23.6"/>
	<rect x="3315.1" y="108.7" class="st1" width="23.6" height="23.6"/>
	<rect x="3385.8" y="-9.2" class="st1" width="23.6" height="23.6"/>
	<rect x="3409.4" y="14.4" class="st1" width="23.6" height="23.6"/>
	<rect x="3433" y="38" class="st1" width="23.6" height="23.6"/>
	<rect x="3456.6" y="61.6" class="st1" width="23.6" height="23.6"/>
	<rect x="3385.8" y="-68.1" class="st1" width="23.6" height="23.6"/>
	<rect x="3433" y="-68.1" class="st1" width="23.6" height="23.6"/>
	<rect x="3480.2" y="-68.1" class="st1" width="23.6" height="23.6"/>
	<rect x="3362.3" y="-138.9" class="st1" width="23.6" height="23.6"/>
	<rect x="3385.8" y="-162.5" class="st1" width="23.6" height="23.6"/>
	<rect x="3409.4" y="-186.1" class="st1" width="23.6" height="23.6"/>
	<rect x="3433" y="-209.7" class="st1" width="23.6" height="23.6"/>
</g>
<g>
	<polygon class="st1" points="1040.6,396.1 1040.6,370.2 1040.6,344.3 1040.6,318.4 1040.6,292.5 1040.6,266.6 1040.6,240.7 
		1040.6,214.8 1040.6,188.9 1040.6,163 1040.6,137.1 1040.6,111.2 1040.6,85.3 1040.6,59.3 1040.6,33.4 1040.6,7.5 1040.6,-18.4 
		1040.6,-44.3 1040.6,-70.2 1040.6,-96.1 1040.6,-122 1040.6,-147.9 1014.7,-147.9 1014.7,-122 1014.7,-96.1 1014.7,-70.2 
		1014.7,-44.3 1014.7,-18.4 1014.7,7.5 1014.7,33.4 1014.7,59.3 1014.7,85.3 1014.7,111.2 1014.7,137.1 1014.7,163 1014.7,188.9 
		1014.7,214.8 1014.7,240.7 1014.7,266.6 1014.7,292.5 1014.7,318.4 1014.7,344.3 1014.7,370.2 1014.7,396.1 1014.7,422 
		1014.7,447.9 1040.6,447.9 1040.6,422 	"/>
	<polygon class="st1" points="1610.5,447.9 1584.6,447.9 1584.6,422 1584.6,396.1 1584.6,370.2 1584.6,344.3 1584.6,318.4 
		1584.6,292.5 1584.6,266.6 1584.6,240.7 1584.6,214.8 1584.6,188.9 1584.6,163 1558.7,163 1558.7,188.9 1558.7,214.8 1558.7,240.7 
		1558.7,266.6 1558.7,292.5 1558.7,318.4 1558.7,344.3 1558.7,370.2 1558.7,396.1 1558.7,422 1558.7,447.9 1532.7,447.9 
		1506.8,447.9 1480.9,447.9 1455,447.9 1429.1,447.9 1403.2,447.9 1377.3,447.9 1351.4,447.9 1325.5,447.9 1299.6,447.9 
		1273.7,447.9 1247.8,447.9 1221.9,447.9 1196,447.9 1170.1,447.9 1144.2,447.9 1144.2,422 1144.2,396.1 1144.2,370.2 1144.2,344.3 
		1144.2,318.4 1144.2,292.5 1144.2,266.6 1144.2,240.7 1144.2,214.8 1144.2,188.9 1144.2,163 1118.3,163 1118.3,188.9 1118.3,214.8 
		1118.3,240.7 1118.3,266.6 1118.3,292.5 1118.3,318.4 1118.3,344.3 1118.3,370.2 1118.3,396.1 1118.3,422 1118.3,447.9 
		1092.4,447.9 1066.5,447.9 1040.6,447.9 1040.6,473.8 1066.5,473.8 1092.4,473.8 1118.3,473.8 1144.2,473.8 1170.1,473.8 
		1196,473.8 1221.9,473.8 1247.8,473.8 1273.7,473.8 1299.6,473.8 1325.5,473.8 1351.4,473.8 1377.3,473.8 1403.2,473.8 
		1429.1,473.8 1455,473.8 1480.9,473.8 1506.8,473.8 1532.7,473.8 1558.7,473.8 1584.6,473.8 1610.5,473.8 1636.4,473.8 
		1662.3,473.8 1662.3,447.9 1636.4,447.9 	"/>
	<polygon class="st1" points="1662.3,-96.1 1662.3,-70.2 1662.3,-44.3 1662.3,-18.4 1662.3,7.5 1662.3,33.4 1662.3,59.3 
		1662.3,85.3 1662.3,111.2 1662.3,137.1 1662.3,163 1662.3,188.9 1662.3,214.8 1662.3,240.7 1662.3,266.6 1662.3,292.5 
		1662.3,318.4 1662.3,344.3 1662.3,370.2 1662.3,396.1 1662.3,422 1662.3,447.9 1688.2,447.9 1688.2,422 1688.2,396.1 1688.2,370.2 
		1688.2,344.3 1688.2,318.4 1688.2,292.5 1688.2,266.6 1688.2,240.7 1688.2,214.8 1688.2,188.9 1688.2,163 1688.2,137.1 
		1688.2,111.2 1688.2,85.3 1688.2,59.3 1688.2,33.4 1688.2,7.5 1688.2,-18.4 1688.2,-44.3 1688.2,-70.2 1688.2,-96.1 	"/>
	<rect x="1636.4" y="-122" class="st1" width="25.9" height="25.9"/>
	<rect x="1610.5" y="-147.9" class="st1" width="25.9" height="25.9"/>
	<polygon class="st1" points="1429.1,-70.2 1429.1,-44.3 1429.1,-18.4 1455,-18.4 1455,-44.3 1455,-70.2 1455,-96.1 1429.1,-96.1 	
		"/>
	<polygon class="st1" points="1351.4,-70.2 1351.4,-96.1 1325.5,-96.1 1325.5,-70.2 1325.5,-44.3 1325.5,-18.4 1351.4,-18.4 
		1351.4,-44.3 	"/>
	<polygon class="st1" points="1377.3,-18.4 1351.4,-18.4 1351.4,7.5 1377.3,7.5 1403.2,7.5 1429.1,7.5 1429.1,-18.4 1403.2,-18.4 	
		"/>
	<polygon class="st1" points="1403.2,-96.1 1429.1,-96.1 1429.1,-122 1403.2,-122 1377.3,-122 1351.4,-122 1351.4,-96.1 
		1377.3,-96.1 	"/>
	<polygon class="st1" points="1455,33.4 1429.1,33.4 1403.2,33.4 1377.3,33.4 1351.4,33.4 1325.5,33.4 1299.6,33.4 1273.7,33.4 
		1247.8,33.4 1221.9,33.4 1196,33.4 1170.1,33.4 1170.1,59.3 1196,59.3 1221.9,59.3 1247.8,59.3 1273.7,59.3 1299.6,59.3 
		1325.5,59.3 1351.4,59.3 1377.3,59.3 1403.2,59.3 1429.1,59.3 1455,59.3 1480.9,59.3 1506.8,59.3 1506.8,33.4 1480.9,33.4 	"/>
	<polygon class="st1" points="1196,163 1221.9,163 1247.8,163 1273.7,163 1299.6,163 1325.5,163 1351.4,163 1377.3,163 1403.2,163 
		1429.1,163 1455,163 1480.9,163 1506.8,163 1532.7,163 1558.7,163 1558.7,137.1 1532.7,137.1 1506.8,137.1 1480.9,137.1 
		1455,137.1 1429.1,137.1 1403.2,137.1 1377.3,137.1 1351.4,137.1 1325.5,137.1 1299.6,137.1 1273.7,137.1 1247.8,137.1 
		1221.9,137.1 1196,137.1 1170.1,137.1 1144.2,137.1 1144.2,163 1170.1,163 	"/>
	<polygon class="st1" points="1092.4,-147.9 1118.3,-147.9 1144.2,-147.9 1144.2,-122 1144.2,-96.1 1144.2,-70.2 1144.2,-44.3 
		1144.2,-18.4 1144.2,7.5 1144.2,33.4 1170.1,33.4 1170.1,7.5 1170.1,-18.4 1170.1,-44.3 1170.1,-70.2 1170.1,-96.1 1170.1,-122 
		1170.1,-147.9 1196,-147.9 1221.9,-147.9 1247.8,-147.9 1273.7,-147.9 1299.6,-147.9 1325.5,-147.9 1351.4,-147.9 1377.3,-147.9 
		1403.2,-147.9 1429.1,-147.9 1455,-147.9 1480.9,-147.9 1506.8,-147.9 1506.8,-122 1506.8,-96.1 1506.8,-70.2 1506.8,-44.3 
		1506.8,-18.4 1506.8,7.5 1506.8,33.4 1532.7,33.4 1532.7,7.5 1532.7,-18.4 1532.7,-44.3 1532.7,-70.2 1532.7,-96.1 1532.7,-122 
		1532.7,-147.9 1558.7,-147.9 1584.6,-147.9 1610.5,-147.9 1610.5,-173.8 1584.6,-173.8 1558.7,-173.8 1532.7,-173.8 1506.8,-173.8 
		1480.9,-173.8 1455,-173.8 1429.1,-173.8 1403.2,-173.8 1377.3,-173.8 1351.4,-173.8 1325.5,-173.8 1299.6,-173.8 1273.7,-173.8 
		1247.8,-173.8 1221.9,-173.8 1196,-173.8 1170.1,-173.8 1144.2,-173.8 1118.3,-173.8 1092.4,-173.8 1066.5,-173.8 1040.6,-173.8 
		1040.6,-147.9 1066.5,-147.9 	"/>
</g>
<g>
	<rect y="-0.1" class="st0" width="900" height="300"/>
	<rect y="300.1" class="st0" width="900" height="300"/>
	<rect y="-300.1" class="st0" width="900" height="300"/>
	<g>
		<polygon class="st1" points="210.2,-118.1 210.2,-89.9 210.2,-61.7 238.4,-61.7 266.6,-61.7 266.6,-89.9 266.6,-118.1 
			238.4,-118.1 		"/>
		<polygon class="st1" points="661.6,-174.5 633.4,-174.5 605.2,-174.5 577,-174.5 548.7,-174.5 520.5,-174.5 492.3,-174.5 
			464.1,-174.5 435.9,-174.5 407.7,-174.5 379.5,-174.5 351.3,-174.5 323,-174.5 294.8,-174.5 266.6,-174.5 266.6,-146.3 
			266.6,-118.1 294.8,-118.1 323,-118.1 351.3,-118.1 379.5,-118.1 407.7,-118.1 435.9,-118.1 464.1,-118.1 492.3,-118.1 
			520.5,-118.1 548.7,-118.1 577,-118.1 605.2,-118.1 605.2,-89.9 577,-89.9 577,-61.7 548.7,-61.7 548.7,-33.5 520.5,-33.5 
			520.5,-5.2 492.3,-5.2 492.3,23 464.1,23 464.1,51.2 435.9,51.2 435.9,79.4 407.7,79.4 407.7,107.6 379.5,107.6 379.5,135.8 
			379.5,164 407.7,164 435.9,164 464.1,164 492.3,164 520.5,164 548.7,164 577,164 605.2,164 605.2,192.3 633.4,192.3 633.4,220.5 
			633.4,248.7 633.4,276.9 633.4,305.1 633.4,333.3 605.2,333.3 605.2,361.5 577,361.5 577,389.8 548.7,389.8 548.7,418 520.5,418 
			492.3,418 464.1,418 435.9,418 407.7,418 379.5,418 351.3,418 323,418 323,389.8 294.8,389.8 294.8,361.5 266.6,361.5 
			266.6,333.3 238.4,333.3 210.2,333.3 210.2,361.5 210.2,389.8 238.4,389.8 238.4,418 266.6,418 266.6,446.2 294.8,446.2 
			294.8,474.4 323,474.4 351.3,474.4 379.5,474.4 407.7,474.4 435.9,474.4 464.1,474.4 492.3,474.4 520.5,474.4 548.7,474.4 
			577,474.4 577,446.2 605.2,446.2 605.2,418 633.4,418 633.4,389.8 661.6,389.8 661.6,361.5 689.8,361.5 689.8,333.3 689.8,305.1 
			689.8,276.9 689.8,248.7 689.8,220.5 689.8,192.3 661.6,192.3 661.6,164 661.6,135.8 633.4,135.8 605.2,135.8 605.2,107.6 
			577,107.6 548.7,107.6 520.5,107.6 492.3,107.6 492.3,79.4 520.5,79.4 520.5,51.2 548.7,51.2 548.7,23 577,23 577,-5.2 
			605.2,-5.2 605.2,-33.5 633.4,-33.5 633.4,-61.7 661.6,-61.7 661.6,-89.9 689.8,-89.9 689.8,-118.1 689.8,-146.3 689.8,-174.5 		
			"/>
	</g>
</g>
</svg>
