<?xml version="1.0" encoding="utf-8"?>
<!-- Generator: Adobe Illustrator 28.2.0, SVG Export Plug-In . SVG Version: 6.00 Build 0)  -->
<svg version="1.1" id="Calque_1" xmlns="http://www.w3.org/2000/svg" xmlns:xlink="http://www.w3.org/1999/xlink" x="0px" y="0px"
	 viewBox="0 0 3600 300" style="enable-background:new 0 0 3600 300;" xml:space="preserve">
<style type="text/css">
	.st0{fill:#030000;}
	.st1{fill:#FFFFFF;}
</style>
<rect x="1800" class="st0" width="900" height="300"/>
<rect x="2700" class="st0" width="900" height="300"/>
<rect x="900" class="st0" width="900" height="300"/>
<g>
	<g>
		<rect x="2392.6" y="107.2" class="st1" width="22.4" height="22.4"/>
	</g>
	<g>
		<polygon class="st1" points="2057.1,-429.6 2079.5,-429.6 2101.9,-429.6 2124.2,-429.6 2146.6,-429.6 2169,-429.6 2191.3,-429.6 
			2213.7,-429.6 2236.1,-429.6 2258.4,-429.6 2280.8,-429.6 2303.1,-429.6 2325.5,-429.6 2347.9,-429.6 2370.2,-429.6 
			2392.6,-429.6 2415,-429.6 2437.3,-429.6 2459.7,-429.6 2482.1,-429.6 2482.1,-451.9 2459.7,-451.9 2437.3,-451.9 2415,-451.9 
			2392.6,-451.9 2370.2,-451.9 2347.9,-451.9 2325.5,-451.9 2325.5,-474.3 2303.1,-474.3 2303.1,-451.9 2280.8,-451.9 
			2258.4,-451.9 2236.1,-451.9 2213.7,-451.9 2191.3,-451.9 2191.3,-474.3 2169,-474.3 2169,-451.9 2146.6,-451.9 2124.2,-451.9 
			2101.9,-451.9 2079.5,-451.9 2057.1,-451.9 2034.8,-451.9 2012.4,-451.9 2012.4,-429.6 2034.8,-429.6 		"/>
	</g>
	<g>
		<polygon class="st1" points="2236.1,-474.3 2258.4,-474.3 2280.8,-474.3 2303.1,-474.3 2303.1,-496.6 2280.8,-496.6 
			2258.4,-496.6 2236.1,-496.6 2213.7,-496.6 2191.3,-496.6 2191.3,-474.3 2213.7,-474.3 		"/>
	</g>
	<g>
		<polygon class="st1" points="2415,174.3 2392.6,174.3 2370.2,174.3 2347.9,174.3 2325.5,174.3 2303.1,174.3 2280.8,174.3 
			2258.4,174.3 2236.1,174.3 2213.7,174.3 2191.3,174.3 2169,174.3 2146.6,174.3 2124.2,174.3 2101.9,174.3 2079.5,174.3 
			2057.1,174.3 2034.8,174.3 2034.8,196.6 2057.1,196.6 2079.5,196.6 2101.9,196.6 2124.2,196.6 2146.6,196.6 2169,196.6 
			2191.3,196.6 2213.7,196.6 2236.1,196.6 2258.4,196.6 2280.8,196.6 2303.1,196.6 2325.5,196.6 2347.9,196.6 2370.2,196.6 
			2392.6,196.6 2415,196.6 2437.3,196.6 2459.7,196.6 2459.7,174.3 2437.3,174.3 		"/>
	</g>
	<g>
		<polygon class="st1" points="2482.1,-429.6 2482.1,-407.2 2482.1,-384.8 2459.7,-384.8 2437.3,-384.8 2415,-384.8 2392.6,-384.8 
			2370.2,-384.8 2347.9,-384.8 2325.5,-384.8 2303.1,-384.8 2280.8,-384.8 2258.4,-384.8 2236.1,-384.8 2213.7,-384.8 
			2191.3,-384.8 2169,-384.8 2146.6,-384.8 2124.2,-384.8 2101.9,-384.8 2079.5,-384.8 2057.1,-384.8 2034.8,-384.8 2012.4,-384.8 
			2012.4,-407.2 2012.4,-429.6 1990,-429.6 1990,-407.2 1990,-384.8 1990,-362.5 2012.4,-362.5 2012.4,-340.1 2012.4,-317.7 
			2012.4,-295.4 2012.4,-273 2012.4,-250.6 2012.4,-228.3 2012.4,-205.9 2012.4,-183.5 2012.4,-161.2 2012.4,-138.8 2012.4,-116.5 
			2012.4,-94.1 2012.4,-71.7 2012.4,-49.4 2012.4,-27 2012.4,-4.6 2012.4,17.7 2012.4,40.1 2012.4,62.5 2012.4,84.8 2012.4,107.2 
			2012.4,129.6 2012.4,151.9 2012.4,174.3 2034.8,174.3 2034.8,151.9 2034.8,129.6 2034.8,107.2 2034.8,84.8 2034.8,62.5 
			2034.8,40.1 2034.8,17.7 2034.8,-4.6 2034.8,-27 2034.8,-49.4 2034.8,-71.7 2034.8,-94.1 2034.8,-116.5 2034.8,-138.8 
			2034.8,-161.2 2034.8,-183.5 2034.8,-205.9 2034.8,-228.3 2034.8,-250.6 2034.8,-273 2034.8,-295.4 2034.8,-317.7 2034.8,-340.1 
			2034.8,-362.5 2057.1,-362.5 2079.5,-362.5 2101.9,-362.5 2124.2,-362.5 2146.6,-362.5 2169,-362.5 2191.3,-362.5 2213.7,-362.5 
			2236.1,-362.5 2258.4,-362.5 2280.8,-362.5 2303.1,-362.5 2325.5,-362.5 2347.9,-362.5 2370.2,-362.5 2392.6,-362.5 2415,-362.5 
			2437.3,-362.5 2459.7,-362.5 2459.7,-340.1 2459.7,-317.7 2459.7,-295.4 2459.7,-273 2459.7,-250.6 2459.7,-228.3 2459.7,-205.9 
			2459.7,-183.5 2459.7,-161.2 2459.7,-138.8 2459.7,-116.5 2459.7,-94.1 2459.7,-71.7 2459.7,-49.4 2459.7,-27 2459.7,-4.6 
			2459.7,17.7 2459.7,40.1 2459.7,62.5 2459.7,84.8 2459.7,107.2 2459.7,129.6 2459.7,151.9 2459.7,174.3 2482.1,174.3 
			2482.1,151.9 2482.1,129.6 2482.1,107.2 2482.1,84.8 2482.1,62.5 2482.1,40.1 2482.1,17.7 2482.1,-4.6 2482.1,-27 2482.1,-49.4 
			2482.1,-71.7 2482.1,-94.1 2482.1,-116.5 2482.1,-138.8 2482.1,-161.2 2482.1,-183.5 2482.1,-205.9 2482.1,-228.3 2482.1,-250.6 
			2482.1,-273 2482.1,-295.4 2482.1,-317.7 2482.1,-340.1 2482.1,-362.5 2504.4,-362.5 2504.4,-384.8 2504.4,-407.2 2504.4,-429.6 
					"/>
	</g>
	<g>
		<polygon class="st1" points="2370.2,-273 2370.2,-250.6 2370.2,-228.3 2370.2,-205.9 2370.2,-183.5 2370.2,-161.2 2370.2,-138.8 
			2370.2,-116.5 2370.2,-94.1 2370.2,-71.7 2370.2,-49.4 2370.2,-27 2370.2,-4.6 2370.2,17.7 2370.2,40.1 2370.2,62.5 2370.2,84.8 
			2370.2,107.2 2392.6,107.2 2392.6,84.8 2392.6,62.5 2392.6,40.1 2392.6,17.7 2392.6,-4.6 2392.6,-27 2392.6,-49.4 2392.6,-71.7 
			2392.6,-94.1 2392.6,-116.5 2392.6,-138.8 2392.6,-161.2 2392.6,-183.5 2392.6,-205.9 2392.6,-228.3 2392.6,-250.6 2392.6,-273 
			2392.6,-295.4 2370.2,-295.4 		"/>
	</g>
	<g>
		<rect x="2392.6" y="-317.7" class="st1" width="22.4" height="22.4"/>
	</g>
	<g>
		<rect x="2314.3" y="107.2" class="st1" width="22.4" height="22.4"/>
	</g>
	<g>
		<polygon class="st1" points="2292,-273 2292,-250.6 2292,-228.3 2292,-205.9 2292,-183.5 2292,-161.2 2292,-138.8 2292,-116.5 
			2292,-94.1 2292,-71.7 2292,-49.4 2292,-27 2292,-4.6 2292,17.7 2292,40.1 2292,62.5 2292,84.8 2292,107.2 2314.3,107.2 
			2314.3,84.8 2314.3,62.5 2314.3,40.1 2314.3,17.7 2314.3,-4.6 2314.3,-27 2314.3,-49.4 2314.3,-71.7 2314.3,-94.1 2314.3,-116.5 
			2314.3,-138.8 2314.3,-161.2 2314.3,-183.5 2314.3,-205.9 2314.3,-228.3 2314.3,-250.6 2314.3,-273 2314.3,-295.4 2292,-295.4 		
			"/>
	</g>
	<g>
		<rect x="2314.3" y="-317.7" class="st1" width="22.4" height="22.4"/>
	</g>
	<g>
		<rect x="2213.7" y="107.2" class="st1" width="22.4" height="22.4"/>
	</g>
	<g>
		<polygon class="st1" points="2191.3,-273 2191.3,-250.6 2191.3,-228.3 2191.3,-205.9 2191.3,-183.5 2191.3,-161.2 2191.3,-138.8 
			2191.3,-116.5 2191.3,-94.1 2191.3,-71.7 2191.3,-49.4 2191.3,-27 2191.3,-4.6 2191.3,17.7 2191.3,40.1 2191.3,62.5 2191.3,84.8 
			2191.3,107.2 2213.7,107.2 2213.7,84.8 2213.7,62.5 2213.7,40.1 2213.7,17.7 2213.7,-4.6 2213.7,-27 2213.7,-49.4 2213.7,-71.7 
			2213.7,-94.1 2213.7,-116.5 2213.7,-138.8 2213.7,-161.2 2213.7,-183.5 2213.7,-205.9 2213.7,-228.3 2213.7,-250.6 2213.7,-273 
			2213.7,-295.4 2191.3,-295.4 		"/>
	</g>
	<g>
		<rect x="2213.7" y="-317.7" class="st1" width="22.4" height="22.4"/>
	</g>
	<g>
		<rect x="2135.4" y="107.2" class="st1" width="22.4" height="22.4"/>
	</g>
	<g>
		<polygon class="st1" points="2113.1,-273 2113.1,-250.6 2113.1,-228.3 2113.1,-205.9 2113.1,-183.5 2113.1,-161.2 2113.1,-138.8 
			2113.1,-116.5 2113.1,-94.1 2113.1,-71.7 2113.1,-49.4 2113.1,-27 2113.1,-4.6 2113.1,17.7 2113.1,40.1 2113.1,62.5 2113.1,84.8 
			2113.1,107.2 2135.4,107.2 2135.4,84.8 2135.4,62.5 2135.4,40.1 2135.4,17.7 2135.4,-4.6 2135.4,-27 2135.4,-49.4 2135.4,-71.7 
			2135.4,-94.1 2135.4,-116.5 2135.4,-138.8 2135.4,-161.2 2135.4,-183.5 2135.4,-205.9 2135.4,-228.3 2135.4,-250.6 2135.4,-273 
			2135.4,-295.4 2113.1,-295.4 		"/>
	</g>
	<g>
		<rect x="2135.4" y="-317.7" class="st1" width="22.4" height="22.4"/>
	</g>
</g>
<g>
	<path class="st1" d="M3008.5-309.2v23.6v23.6h-23.6h-23.6h-23.6v23.6v23.6v23.6h-23.6h-23.6v23.6H2867v23.6h-23.6v23.6h-23.6v23.6
		v23.6h-23.6v23.6v23.6v23.6V21v23.6v23.6h23.6v23.6v23.6h23.6v23.6h23.6v23.6h23.6v23.6h23.6h23.6v23.6h23.6h23.6h23.6h23.6h23.6
		h23.6h23.6v-23.6h23.6v-23.6h23.6v-23.6h23.6v-23.6h23.6V91.7V68.2h23.6V44.6V21V-2.6v-23.6v-23.6v-23.6h-23.6v-23.6v-23.6h-23.6
		v-23.6H3150v-23.6h-23.6v-23.6h-23.6v-23.6v-23.6V-262h-23.6h-23.6h-23.6v-23.6v-23.6v-23.6h-23.6V-309.2z M2914.2,91.7h-23.6V68.2
		h23.6V91.7z M2867,21V-2.6v-23.6h23.6v23.6V21v23.6H2867V21z M2937.7,115.3V91.7h23.6v23.6v23.6h-23.6V115.3z"/>
	<rect x="3032.1" y="-356.4" class="st1" width="23.6" height="23.6"/>
	<polygon class="st1" points="3126.4,-380 3102.8,-380 3079.2,-380 3055.7,-380 3055.7,-356.4 3079.2,-356.4 3102.8,-356.4 
		3126.4,-356.4 3150,-356.4 3150,-380 	"/>
	<polygon class="st1" points="3173.6,-356.4 3150,-356.4 3150,-332.8 3173.6,-332.8 3197.2,-332.8 3197.2,-356.4 	"/>
	<polygon class="st1" points="3220.8,-332.8 3197.2,-332.8 3197.2,-309.2 3220.8,-309.2 3244.3,-309.2 3267.9,-309.2 3267.9,-332.8 
		3244.3,-332.8 	"/>
	<rect x="3244.3" y="-391.7" class="st1" width="23.6" height="23.6"/>
	<rect x="3209" y="-415.3" class="st1" width="23.6" height="23.6"/>
	<rect x="3161.8" y="-438.9" class="st1" width="23.6" height="23.6"/>
	<rect x="3244.3" y="-285.6" class="st1" width="23.6" height="23.6"/>
	<rect x="3220.8" y="-262" class="st1" width="23.6" height="23.6"/>
	<rect x="3197.2" y="-238.4" class="st1" width="23.6" height="23.6"/>
	<polygon class="st1" points="3291.5,-356.4 3267.9,-356.4 3267.9,-332.8 3291.5,-332.8 3315.1,-332.8 3338.7,-332.8 3338.7,-356.4 
		3315.1,-356.4 	"/>
	<rect x="3291.5" y="-415.3" class="st1" width="23.6" height="23.6"/>
	<rect x="3267.9" y="-462.5" class="st1" width="23.6" height="23.6"/>
	<rect x="3244.3" y="-509.7" class="st1" width="23.6" height="23.6"/>
	<rect x="3315.1" y="-285.6" class="st1" width="23.6" height="23.6"/>
	<rect x="3315.1" y="-238.4" class="st1" width="23.6" height="23.6"/>
	<rect x="3315.1" y="-191.3" class="st1" width="23.6" height="23.6"/>
	<rect x="3385.8" y="-309.2" class="st1" width="23.6" height="23.6"/>
	<rect x="3409.4" y="-285.6" class="st1" width="23.6" height="23.6"/>
	<rect x="3433" y="-262" class="st1" width="23.6" height="23.6"/>
	<rect x="3456.6" y="-238.4" class="st1" width="23.6" height="23.6"/>
	<rect x="3385.8" y="-368.2" class="st1" width="23.6" height="23.6"/>
	<rect x="3433" y="-368.2" class="st1" width="23.6" height="23.6"/>
	<rect x="3480.2" y="-368.2" class="st1" width="23.6" height="23.6"/>
	<rect x="3362.3" y="-438.9" class="st1" width="23.6" height="23.6"/>
	<rect x="3385.8" y="-462.5" class="st1" width="23.6" height="23.6"/>
	<rect x="3409.4" y="-486.1" class="st1" width="23.6" height="23.6"/>
	<rect x="3433" y="-509.7" class="st1" width="23.6" height="23.6"/>
</g>
<g>
	<polygon class="st1" points="1040.6,96.1 1040.6,70.2 1040.6,44.3 1040.6,18.4 1040.6,-7.5 1040.6,-33.4 1040.6,-59.3 
		1040.6,-85.2 1040.6,-111.1 1040.6,-137 1040.6,-163 1040.6,-188.9 1040.6,-214.8 1040.6,-240.7 1040.6,-266.6 1040.6,-292.5 
		1040.6,-318.4 1040.6,-344.3 1040.6,-370.2 1040.6,-396.1 1040.6,-422 1040.6,-447.9 1014.7,-447.9 1014.7,-422 1014.7,-396.1 
		1014.7,-370.2 1014.7,-344.3 1014.7,-318.4 1014.7,-292.5 1014.7,-266.6 1014.7,-240.7 1014.7,-214.8 1014.7,-188.9 1014.7,-163 
		1014.7,-137 1014.7,-111.1 1014.7,-85.2 1014.7,-59.3 1014.7,-33.4 1014.7,-7.5 1014.7,18.4 1014.7,44.3 1014.7,70.2 1014.7,96.1 
		1014.7,122 1014.7,147.9 1040.6,147.9 1040.6,122 	"/>
	<polygon class="st1" points="1610.5,147.9 1584.6,147.9 1584.6,122 1584.6,96.1 1584.6,70.2 1584.6,44.3 1584.6,18.4 1584.6,-7.5 
		1584.6,-33.4 1584.6,-59.3 1584.6,-85.2 1584.6,-111.1 1584.6,-137 1558.7,-137 1558.7,-111.1 1558.7,-85.2 1558.7,-59.3 
		1558.7,-33.4 1558.7,-7.5 1558.7,18.4 1558.7,44.3 1558.7,70.2 1558.7,96.1 1558.7,122 1558.7,147.9 1532.7,147.9 1506.8,147.9 
		1480.9,147.9 1455,147.9 1429.1,147.9 1403.2,147.9 1377.3,147.9 1351.4,147.9 1325.5,147.9 1299.6,147.9 1273.7,147.9 
		1247.8,147.9 1221.9,147.9 1196,147.9 1170.1,147.9 1144.2,147.9 1144.2,122 1144.2,96.1 1144.2,70.2 1144.2,44.3 1144.2,18.4 
		1144.2,-7.5 1144.2,-33.4 1144.2,-59.3 1144.2,-85.2 1144.2,-111.1 1144.2,-137 1118.3,-137 1118.3,-111.1 1118.3,-85.2 
		1118.3,-59.3 1118.3,-33.4 1118.3,-7.5 1118.3,18.4 1118.3,44.3 1118.3,70.2 1118.3,96.1 1118.3,122 1118.3,147.9 1092.4,147.9 
		1066.5,147.9 1040.6,147.9 1040.6,173.8 1066.5,173.8 1092.4,173.8 1118.3,173.8 1144.2,173.8 1170.1,173.8 1196,173.8 
		1221.9,173.8 1247.8,173.8 1273.7,173.8 1299.6,173.8 1325.5,173.8 1351.4,173.8 1377.3,173.8 1403.2,173.8 1429.1,173.8 
		1455,173.8 1480.9,173.8 1506.8,173.8 1532.7,173.8 1558.7,173.8 1584.6,173.8 1610.5,173.8 1636.4,173.8 1662.3,173.8 
		1662.3,147.9 1636.4,147.9 	"/>
	<polygon class="st1" points="1662.3,-396.1 1662.3,-370.2 1662.3,-344.3 1662.3,-318.4 1662.3,-292.5 1662.3,-266.6 1662.3,-240.7 
		1662.3,-214.8 1662.3,-188.9 1662.3,-163 1662.3,-137 1662.3,-111.1 1662.3,-85.2 1662.3,-59.3 1662.3,-33.4 1662.3,-7.5 
		1662.3,18.4 1662.3,44.3 1662.3,70.2 1662.3,96.1 1662.3,122 1662.3,147.9 1688.2,147.9 1688.2,122 1688.2,96.1 1688.2,70.2 
		1688.2,44.3 1688.2,18.4 1688.2,-7.5 1688.2,-33.4 1688.2,-59.3 1688.2,-85.2 1688.2,-111.1 1688.2,-137 1688.2,-163 
		1688.2,-188.9 1688.2,-214.8 1688.2,-240.7 1688.2,-266.6 1688.2,-292.5 1688.2,-318.4 1688.2,-344.3 1688.2,-370.2 1688.2,-396.1 
			"/>
	<rect x="1636.4" y="-422" class="st1" width="25.9" height="25.9"/>
	<rect x="1610.5" y="-447.9" class="st1" width="25.9" height="25.9"/>
	<polygon class="st1" points="1429.1,-370.2 1429.1,-344.3 1429.1,-318.4 1455,-318.4 1455,-344.3 1455,-370.2 1455,-396.1 
		1429.1,-396.1 	"/>
	<polygon class="st1" points="1351.4,-370.2 1351.4,-396.1 1325.5,-396.1 1325.5,-370.2 1325.5,-344.3 1325.5,-318.4 1351.4,-318.4 
		1351.4,-344.3 	"/>
	<polygon class="st1" points="1377.3,-318.4 1351.4,-318.4 1351.4,-292.5 1377.3,-292.5 1403.2,-292.5 1429.1,-292.5 1429.1,-318.4 
		1403.2,-318.4 	"/>
	<polygon class="st1" points="1403.2,-396.1 1429.1,-396.1 1429.1,-422 1403.2,-422 1377.3,-422 1351.4,-422 1351.4,-396.1 
		1377.3,-396.1 	"/>
	<polygon class="st1" points="1455,-266.6 1429.1,-266.6 1403.2,-266.6 1377.3,-266.6 1351.4,-266.6 1325.5,-266.6 1299.6,-266.6 
		1273.7,-266.6 1247.8,-266.6 1221.9,-266.6 1196,-266.6 1170.1,-266.6 1170.1,-240.7 1196,-240.7 1221.9,-240.7 1247.8,-240.7 
		1273.7,-240.7 1299.6,-240.7 1325.5,-240.7 1351.4,-240.7 1377.3,-240.7 1403.2,-240.7 1429.1,-240.7 1455,-240.7 1480.9,-240.7 
		1506.8,-240.7 1506.8,-266.6 1480.9,-266.6 	"/>
	<polygon class="st1" points="1196,-137 1221.9,-137 1247.8,-137 1273.7,-137 1299.6,-137 1325.5,-137 1351.4,-137 1377.3,-137 
		1403.2,-137 1429.1,-137 1455,-137 1480.9,-137 1506.8,-137 1532.7,-137 1558.7,-137 1558.7,-163 1532.7,-163 1506.8,-163 
		1480.9,-163 1455,-163 1429.1,-163 1403.2,-163 1377.3,-163 1351.4,-163 1325.5,-163 1299.6,-163 1273.7,-163 1247.8,-163 
		1221.9,-163 1196,-163 1170.1,-163 1144.2,-163 1144.2,-137 1170.1,-137 	"/>
	<polygon class="st1" points="1092.4,-447.9 1118.3,-447.9 1144.2,-447.9 1144.2,-422 1144.2,-396.1 1144.2,-370.2 1144.2,-344.3 
		1144.2,-318.4 1144.2,-292.5 1144.2,-266.6 1170.1,-266.6 1170.1,-292.5 1170.1,-318.4 1170.1,-344.3 1170.1,-370.2 1170.1,-396.1 
		1170.1,-422 1170.1,-447.9 1196,-447.9 1221.9,-447.9 1247.8,-447.9 1273.7,-447.9 1299.6,-447.9 1325.5,-447.9 1351.4,-447.9 
		1377.3,-447.9 1403.2,-447.9 1429.1,-447.9 1455,-447.9 1480.9,-447.9 1506.8,-447.9 1506.8,-422 1506.8,-396.1 1506.8,-370.2 
		1506.8,-344.3 1506.8,-318.4 1506.8,-292.5 1506.8,-266.6 1532.7,-266.6 1532.7,-292.5 1532.7,-318.4 1532.7,-344.3 1532.7,-370.2 
		1532.7,-396.1 1532.7,-422 1532.7,-447.9 1558.7,-447.9 1584.6,-447.9 1610.5,-447.9 1610.5,-473.8 1584.6,-473.8 1558.7,-473.8 
		1532.7,-473.8 1506.8,-473.8 1480.9,-473.8 1455,-473.8 1429.1,-473.8 1403.2,-473.8 1377.3,-473.8 1351.4,-473.8 1325.5,-473.8 
		1299.6,-473.8 1273.7,-473.8 1247.8,-473.8 1221.9,-473.8 1196,-473.8 1170.1,-473.8 1144.2,-473.8 1118.3,-473.8 1092.4,-473.8 
		1066.5,-473.8 1040.6,-473.8 1040.6,-447.9 1066.5,-447.9 	"/>
</g>
<rect y="-300.2" class="st0" width="900" height="300"/>
<rect class="st0" width="900" height="300"/>
<rect y="-600.2" class="st0" width="900" height="300"/>
<g>
	<polygon class="st1" points="210.2,-418.2 210.2,-390 210.2,-361.8 238.4,-361.8 266.6,-361.8 266.6,-390 266.6,-418.2 
		238.4,-418.2 	"/>
	<polygon class="st1" points="661.6,-474.6 633.4,-474.6 605.2,-474.6 577,-474.6 548.7,-474.6 520.5,-474.6 492.3,-474.6 
		464.1,-474.6 435.9,-474.6 407.7,-474.6 379.5,-474.6 351.3,-474.6 323,-474.6 294.8,-474.6 266.6,-474.6 266.6,-446.4 
		266.6,-418.2 294.8,-418.2 323,-418.2 351.3,-418.2 379.5,-418.2 407.7,-418.2 435.9,-418.2 464.1,-418.2 492.3,-418.2 
		520.5,-418.2 548.7,-418.2 577,-418.2 605.2,-418.2 605.2,-390 577,-390 577,-361.8 548.7,-361.8 548.7,-333.6 520.5,-333.6 
		520.5,-305.4 492.3,-305.4 492.3,-277.1 464.1,-277.1 464.1,-248.9 435.9,-248.9 435.9,-220.7 407.7,-220.7 407.7,-192.5 
		379.5,-192.5 379.5,-164.3 379.5,-136.1 407.7,-136.1 435.9,-136.1 464.1,-136.1 492.3,-136.1 520.5,-136.1 548.7,-136.1 
		577,-136.1 605.2,-136.1 605.2,-107.9 633.4,-107.9 633.4,-79.6 633.4,-51.4 633.4,-23.2 633.4,5 633.4,33.2 605.2,33.2 
		605.2,61.4 577,61.4 577,89.6 548.7,89.6 548.7,117.9 520.5,117.9 492.3,117.9 464.1,117.9 435.9,117.9 407.7,117.9 379.5,117.9 
		351.3,117.9 323,117.9 323,89.6 294.8,89.6 294.8,61.4 266.6,61.4 266.6,33.2 238.4,33.2 210.2,33.2 210.2,61.4 210.2,89.6 
		238.4,89.6 238.4,117.9 266.6,117.9 266.6,146.1 294.8,146.1 294.8,174.3 323,174.3 351.3,174.3 379.5,174.3 407.7,174.3 
		435.9,174.3 464.1,174.3 492.3,174.3 520.5,174.3 548.7,174.3 577,174.3 577,146.1 605.2,146.1 605.2,117.9 633.4,117.9 
		633.4,89.6 661.6,89.6 661.6,61.4 689.8,61.4 689.8,33.2 689.8,5 689.8,-23.2 689.8,-51.4 689.8,-79.6 689.8,-107.9 661.6,-107.9 
		661.6,-136.1 661.6,-164.3 633.4,-164.3 605.2,-164.3 605.2,-192.5 577,-192.5 548.7,-192.5 520.5,-192.5 492.3,-192.5 
		492.3,-220.7 520.5,-220.7 520.5,-248.9 548.7,-248.9 548.7,-277.1 577,-277.1 577,-305.4 605.2,-305.4 605.2,-333.6 633.4,-333.6 
		633.4,-361.8 661.6,-361.8 661.6,-390 689.8,-390 689.8,-418.2 689.8,-446.4 689.8,-474.6 	"/>
</g>
</svg>
