<?xml version="1.0" encoding="UTF-8"?>
<svg id="Calque_1" data-name="Calque 1" xmlns="http://www.w3.org/2000/svg" viewBox="0 0 3600 300">
  <defs>
    <style>
      .cls-1 {
        fill: #fff;
      }

      .cls-1, .cls-2 {
        stroke-width: 0px;
      }

      .cls-2 {
        fill: #030000;
      }
    </style>
  </defs>
  <g>
    <polygon class="cls-2" points="900 .3 900 300.3 629.2 300.3 629.2 82.8 270.8 82.8 270.8 197.8 482.2 197.8 482.2 300.3 0 300.3 0 .3 900 .3"/>
    <polygon class="cls-1" points="629.2 82.8 629.2 300.3 482.2 300.3 482.2 197.8 270.8 197.8 270.8 82.8 629.2 82.8"/>
  </g>
  <g>
    <path class="cls-2" d="M1544.8,295.5c0,1.5,0,3,0,4.5h-413.5c21.2-89.6,107.3-122.5,216.6-122.5s197,42.5,197,118Z"/>
    <path class="cls-2" d="M1800,0v300h-101.7c.3-4.6.4-9.3.4-14,0-138-135-220-345.5-220s-338.7,83.4-364.7,234h-88.5V0h900Z"/>
    <path class="cls-1" d="M1698.8,286c0,4.7-.1,9.4-.4,14h-153.7c0-1.5,0-3,0-4.5,0-75.5-79-118-197-118s-195.4,32.9-216.6,122.5h-142.6c26-150.6,170.4-234,364.7-234s345.5,82,345.5,220Z"/>
  </g>
  <g>
    <path class="cls-2" d="M2700,0v300h-94.4c1.9-9.8,2.9-19.9,2.9-30.5,0-131.5-143.5-202-356-202s-349.4,83.3-373.8,232.5h-78.8V0h900Z"/>
    <path class="cls-2" d="M2457,280.5c0,6.8-.7,13.3-2.2,19.5h-433.8c18.6-83.1,106.5-121.5,227.9-121.5s208,36.5,208,102Z"/>
    <path class="cls-1" d="M2608.5,269.5c0,10.6-1,20.8-2.9,30.5h-150.8c1.4-6.2,2.2-12.7,2.2-19.5,0-65.5-86.5-102-208-102s-209.4,38.4-227.9,121.5h-142.3c24.3-149.2,173-232.5,373.8-232.5s356,70.5,356,202Z"/>
  </g>
  <g>
    <path class="cls-1" d="M3551.2,300h-167.9c-49.3-70.3-134.5-105.3-233.1-105.3s-184.2,34.9-233.5,105.3h-167.9c59.8-138.4,202.9-224.8,401.5-224.8s341.2,86.4,401,224.8Z"/>
    <g>
      <path class="cls-2" d="M3600,0v300h-48.8c-59.8-138.4-202.8-224.8-401-224.8s-341.7,86.4-401.5,224.8h-48.8V0h900Z"/>
      <path class="cls-2" d="M3383.3,300h-466.6c49.3-70.3,134.7-105.3,233.5-105.3s183.8,34.9,233.1,105.3Z"/>
    </g>
  </g>
</svg>