<?xml version="1.0" encoding="UTF-8"?>
<svg id="Calque_1" data-name="Calque 1" xmlns="http://www.w3.org/2000/svg" viewBox="0 0 3600 300">
  <defs>
    <style>
      .cls-1 {
        fill: #fff;
      }

      .cls-1, .cls-2 {
        stroke-width: 0px;
      }

      .cls-2 {
        fill: #030000;
      }
    </style>
  </defs>
  <g>
    <g>
      <rect class="cls-2" y="0" width="482.2" height="300"/>
      <rect class="cls-2" x="629.2" y="0" width="270.8" height="300"/>
    </g>
    <rect class="cls-1" x="482" y="0" width="147" height="300"/>
  </g>
  <g>
    <g>
      <path class="cls-2" d="M1544.7,0c-2.6,80.4-77.1,132.4-302.9,264l-64.9,36h-276.8V0h88.5c-1.9,11-3.2,22.3-3.8,34l141.5,4c.5-13.7,2.1-26.3,4.9-38h413.5Z"/>
      <path class="cls-2" d="M1800,0v300h-388.4C1594.7,189.7,1691.4,119.6,1698.3,0h101.7Z"/>
    </g>
    <path class="cls-1" d="M1698.3,0c-6.9,119.7-103.7,189.8-286.8,300h-234.8l64.9-36C1467.5,132.4,1542,80.3,1544.7,0h153.7Z"/>
    <path class="cls-1" d="M1131.1,0c-2.8,11.7-4.4,24.3-4.9,38l-141.5-4c.6-11.7,1.9-23,3.8-34h142.6Z"/>
  </g>
  <g>
    <g>
      <path class="cls-2" d="M2492.3,299.9h-493.6c-2.1-7.1-3.7-14.6-4.7-22.5l-140.5,7c.6,5.2,1.2,10.4,2.1,15.5h-55.6V0h78.8c-.5,2.8-.9,5.6-1.2,8.5l141,6.5c.6-5.2,1.5-10.2,2.6-15h433.8c-12.6,53.9-80.3,82.5-206.3,82.5h-63.5v106.5h63c147.2,0,240.3,37.8,244.4,111Z"/>
      <path class="cls-2" d="M2700,0v300h-53.6c-3.4-95.1-76.2-149-169.9-170.5v-1c69.1-22,117.3-66.8,129.1-128.5h94.4Z"/>
    </g>
    <path class="cls-1" d="M1998.7,299.9h-143.1c-.9-5.1-1.6-10.3-2.1-15.5l140.5-7c1.1,7.9,2.6,15.4,4.7,22.5Z"/>
    <path class="cls-1" d="M2021,0c-1.1,4.8-1.9,9.8-2.6,15l-141-6.5c.4-2.9.8-5.7,1.2-8.5h142.3Z"/>
    <path class="cls-1" d="M2646.3,299.9h-154c-4-73.2-97.2-111-244.4-111h-63v-106.5h63.5c126.1,0,193.8-28.6,206.3-82.5h150.8c-11.9,61.7-60.1,106.5-129.1,128.5v1c93.7,21.5,166.5,75.4,169.9,170.5Z"/>
  </g>
  <g>
    <path class="cls-1" d="M2871.7,157.7c0,56.6,12.6,104,35,142.3h-164.3c-16.2-43.2-24.7-90.9-24.7-142.3,0-57.7,10.8-110.7,31.1-157.7h167.9c-28.5,40.7-45,93.3-45,157.8Z"/>
    <g>
      <g>
        <path class="cls-2" d="M2717.7,157.7c0,51.4,8.5,99.2,24.7,142.3h-42.5s.1-300,.1-300h48.8c-20.3,47-31.1,100.1-31.1,157.7Z"/>
        <path class="cls-2" d="M3428.2,158c0,56.6-12.7,104-35.1,142.2l-486.4-.2c-22.4-38.3-35-85.7-35-142.3,0-64.5,16.5-117,45-157.7l466.6.2c28.5,40.7,44.9,93.3,44.9,157.8Z"/>
        <path class="cls-2" d="M3600,.3v300c-.1,0-42.6,0-42.6,0,16.3-43.1,24.8-90.8,24.8-142.2,0-57.7-10.7-110.7-31-157.8h48.8Z"/>
      </g>
      <path class="cls-1" d="M3582.2,158c0,51.4-8.6,99.2-24.8,142.2h-164.3c22.4-38.3,35.1-85.7,35.1-142.3,0-64.5-16.4-117.1-44.9-157.8h167.9c20.3,47.1,31,100.1,31,157.8Z"/>
    </g>
  </g>
</svg>