<?xml version="1.0" encoding="UTF-8"?>
<svg id="Calque_1" data-name="Calque 1" xmlns="http://www.w3.org/2000/svg" viewBox="0 0 3600 300">
  <defs>
    <style>
      .cls-1 {
        fill: #fff;
      }

      .cls-1, .cls-2 {
        stroke-width: 0px;
      }

      .cls-2 {
        fill: #030000;
      }
    </style>
  </defs>
  <g>
    <polygon class="cls-2" points="900 0 900 300 0 300 0 0 482.2 0 482.2 217.5 629.2 217.5 629.2 0 900 0"/>
    <rect class="cls-1" x="482.2" width="147" height="217.5"/>
  </g>
  <g>
    <path class="cls-2" d="M1800,0v300h-900V0h276.8l-202.1,112v104h750.5v-115.5h-489l128.5-72.5c16.2-9.6,31.8-19,46.8-28h388.4Z"/>
    <path class="cls-1" d="M1725.2,100.5v115.5h-750.5v-104L1176.8,0h234.8c-15,9-30.7,18.4-46.8,28l-128.5,72.5h489Z"/>
  </g>
  <g>
    <g>
      <path class="cls-2" d="M2492.5,5c0,78-110.5,116.5-237.5,116.5S2024.2,87.3,1998.7,0h493.6c0,1.6.1,3.3.1,5Z"/>
      <path class="cls-2" d="M2700,0v300h-900V0h55.6c24.8,147.9,177.5,232.5,397.4,232.5s393.5-78,393.5-225.5,0-4.7-.1-7h53.6Z"/>
    </g>
    <path class="cls-1" d="M2646.5,7c0,147.5-183,225.5-393.5,225.5S1880.4,147.9,1855.6,0h143.1c25.4,87.3,125.5,121.5,256.3,121.5s237.5-38.5,237.5-116.5,0-3.4-.1-5h154c0,2.3.1,4.6.1,7Z"/>
  </g>
  <g>
    <g>
      <path class="cls-2" d="M3393.2,0c-47.2,80.7-137.5,120.7-243,120.7s-196.2-40-243.4-120.7h486.4Z"/>
      <path class="cls-2" d="M3600,0v300h-900V0h42.5c55.6,147.4,201.9,240.2,407.7,240.2S3501.9,147.4,3557.5,0h42.5Z"/>
    </g>
    <path class="cls-1" d="M3557.5,0c-55.6,147.4-201.8,240.2-407.2,240.2S2798.1,147.4,2742.5,0h164.3c47.2,80.7,137.6,120.7,243.4,120.7s195.8-40,243-120.7h164.3Z"/>
  </g>
</svg>